<svg id="Component_10_1" data-name="Component 10 – 1" xmlns="http://www.w3.org/2000/svg" width="43" height="85" viewBox="0 0 43 85">
  <g id="Group_2628" data-name="Group 2628" transform="translate(-1305 -311)">
    <g id="Ellipse_12" data-name="Ellipse 12" transform="translate(1306 356)" fill="#66c835" stroke="#d4fffe" stroke-width="2">
      <circle cx="20" cy="20" r="20" stroke="none"/>
      <circle cx="20" cy="20" r="19" fill="none"/>
    </g>
    <g id="Group_2618" data-name="Group 2618" transform="translate(1318.255 368.929)">
      <g id="Group_2619" data-name="Group 2619" transform="translate(0 0)">
        <path id="Path_2660" data-name="Path 2660" d="M144.636,0H135.87a.871.871,0,0,0-.87.87V3.718a.871.871,0,0,0,.87.87h5.692a.237.237,0,1,0,0-.475H135.87a.4.4,0,0,1-.4-.4V.87a.4.4,0,0,1,.4-.4h8.766a.4.4,0,0,1,.4.4V3.718a.4.4,0,0,1-.4.4h-2.188a.237.237,0,1,0,0,.475h2.188a.871.871,0,0,0,.87-.87V.87a.871.871,0,0,0-.87-.87" transform="translate(-129.304 0)" fill="#fff"/>
        <path id="Path_2661" data-name="Path 2661" d="M144.636,137.625H135.87a.871.871,0,0,0-.87.87v2.848a.871.871,0,0,0,.87.87h8.766a.871.871,0,0,0,.87-.87V138.5a.871.871,0,0,0-.87-.87m.4,3.718a.4.4,0,0,1-.4.4H135.87a.4.4,0,0,1-.4-.4V138.5a.4.4,0,0,1,.4-.4h8.766a.4.4,0,0,1,.4.4Z" transform="translate(-129.304 -131.818)" fill="#fff"/>
        <path id="Path_2662" data-name="Path 2662" d="M144.636,275.25H135.87a.871.871,0,0,0-.87.87v2.848a.871.871,0,0,0,.87.87h8.766a.871.871,0,0,0,.87-.87V276.12a.871.871,0,0,0-.87-.87m.4,3.718a.4.4,0,0,1-.4.4H135.87a.4.4,0,0,1-.4-.4V276.12a.4.4,0,0,1,.4-.4h8.766a.4.4,0,0,1,.4.4Z" transform="translate(-129.304 -263.636)" fill="#fff"/>
        <path id="Path_2663" data-name="Path 2663" d="M24.952,22.5H22.737a.237.237,0,0,0-.237.237v2.215a.237.237,0,0,0,.237.237h2.215a.237.237,0,0,0,.237-.237V22.737a.237.237,0,0,0-.237-.237m-.237,2.215h-1.74v-1.74h1.74Z" transform="translate(-21.551 -21.551)" fill="#fff"/>
        <path id="Path_2664" data-name="Path 2664" d="M3.718,0H.87A.871.871,0,0,0,0,.87V3.718a.871.871,0,0,0,.87.87H3.718a.871.871,0,0,0,.87-.87V.87A.871.871,0,0,0,3.718,0m.4,3.718a.4.4,0,0,1-.4.4H.87a.4.4,0,0,1-.4-.4V.87a.4.4,0,0,1,.4-.4H3.718a.4.4,0,0,1,.4.4Z" transform="translate(0 0)" fill="#fff"/>
        <path id="Path_2665" data-name="Path 2665" d="M24.952,160.125H22.737a.237.237,0,0,0-.237.237v2.215a.237.237,0,0,0,.237.237h2.215a.237.237,0,0,0,.237-.237v-2.215a.237.237,0,0,0-.237-.237m-.237,2.215h-1.74V160.6h1.74Z" transform="translate(-21.551 -153.369)" fill="#fff"/>
        <path id="Path_2666" data-name="Path 2666" d="M3.718,137.625H.87a.871.871,0,0,0-.87.87v2.848a.871.871,0,0,0,.87.87H3.718a.871.871,0,0,0,.87-.87V138.5a.871.871,0,0,0-.87-.87m.4,3.718a.4.4,0,0,1-.4.4H.87a.4.4,0,0,1-.4-.4V138.5a.4.4,0,0,1,.4-.4H3.718a.4.4,0,0,1,.4.4Z" transform="translate(0 -131.818)" fill="#fff"/>
        <path id="Path_2667" data-name="Path 2667" d="M3.718,275.25H3.4a.237.237,0,1,0,0,.475h.316a.4.4,0,0,1,.4.4v2.848a.4.4,0,0,1-.4.4H.87a.4.4,0,0,1-.4-.4V276.12a.4.4,0,0,1,.4-.4H2.516a.237.237,0,1,0,0-.475H.87a.871.871,0,0,0-.87.87v2.848a.871.871,0,0,0,.87.87H3.718a.871.871,0,0,0,.87-.87V276.12a.871.871,0,0,0-.87-.87" transform="translate(0 -263.636)" fill="#fff"/>
        <path id="Path_2668" data-name="Path 2668" d="M22.5,297.987V300.2a.237.237,0,0,0,.237.237h2.215a.237.237,0,0,0,.237-.237v-2.215a.237.237,0,0,0-.237-.237H22.737a.237.237,0,0,0-.237.237m.475.237h1.74v1.74h-1.74Z" transform="translate(-21.551 -285.187)" fill="#fff"/>
        <path id="Path_2669" data-name="Path 2669" d="M176.53,30.237a.237.237,0,0,0-.237-.237H169.12a.237.237,0,1,0,0,.475h7.172a.237.237,0,0,0,.237-.237" transform="translate(-161.757 -28.734)" fill="#fff"/>
        <path id="Path_2670" data-name="Path 2670" d="M169.12,67.5a.237.237,0,1,0,0,.475h3.586a.237.237,0,1,0,0-.475Z" transform="translate(-161.757 -64.652)" fill="#fff"/>
        <path id="Path_2671" data-name="Path 2671" d="M176.293,167.625H169.12a.237.237,0,1,0,0,.475h7.172a.237.237,0,0,0,0-.475" transform="translate(-161.757 -160.552)" fill="#fff"/>
        <path id="Path_2672" data-name="Path 2672" d="M172.706,205.125H169.12a.237.237,0,1,0,0,.475h3.586a.237.237,0,1,0,0-.475" transform="translate(-161.757 -196.47)" fill="#fff"/>
        <path id="Path_2673" data-name="Path 2673" d="M176.293,305.25H169.12a.237.237,0,1,0,0,.475h7.172a.237.237,0,1,0,0-.475" transform="translate(-161.757 -292.371)" fill="#fff"/>
        <path id="Path_2674" data-name="Path 2674" d="M172.706,342.75H169.12a.237.237,0,1,0,0,.475h3.586a.237.237,0,1,0,0-.475" transform="translate(-161.757 -328.288)" fill="#fff"/>
      </g>
    </g>
  </g>
  <g id="Group_2623" data-name="Group 2623" transform="translate(-4662 -699)" opacity="0">
    <rect id="Rectangle_2596" data-name="Rectangle 2596" width="43" height="42" rx="3" transform="translate(4662 699)" fill="#66c835"/>
    <path id="Polygon_3" data-name="Polygon 3" d="M3.566.76a.5.5,0,0,1,.868,0L7.573,6.252A.5.5,0,0,1,7.138,7H.862a.5.5,0,0,1-.434-.748Z" transform="translate(4688 746) rotate(180)" fill="#66c835"/>
    <text id="MCQS" transform="translate(4669 711)" fill="#fff" font-size="10" font-family="Poppins-SemiBold, Poppins" font-weight="600"><tspan x="0" y="0">MCQS</tspan></text>
    <text id="_50_150" data-name="50/150" transform="translate(4675 724)" fill="#fff" font-size="8" font-family="Poppins-SemiBold, Poppins" font-weight="600"><tspan x="0" y="0">50/150</tspan></text>
    <text id="_80_" data-name="80%" transform="translate(4675 736)" fill="#fff" font-size="8" font-family="Poppins-SemiBold, Poppins" font-weight="600"><tspan x="0" y="0">80%</tspan></text>
    <g id="question-circle" transform="translate(4665 717)">
      <path id="Path_2675" data-name="Path 2675" d="M3.75,7.031A3.281,3.281,0,1,0,.469,3.75,3.281,3.281,0,0,0,3.75,7.031Zm0,.469A3.75,3.75,0,1,0,0,3.75,3.75,3.75,0,0,0,3.75,7.5Z" fill="#fff" fill-rule="evenodd"/>
      <path id="Path_2676" data-name="Path 2676" d="M11.813,9.062h.619a.6.6,0,0,1,.637-.649.544.544,0,0,1,.615.547c0,.3-.175.435-.452.643a1.068,1.068,0,0,0-.548.931l0,.217H13.3v-.166c0-.336.128-.435.473-.7a1.144,1.144,0,0,0,.583-.964c0-.708-.6-1.05-1.253-1.05a1.149,1.149,0,0,0-1.291,1.187Zm.732,2.586a.479.479,0,1,0,.473-.441A.441.441,0,0,0,12.545,11.648Z" transform="translate(-9.352 -6.234)" fill="#fff"/>
    </g>
    <path id="trophy" d="M11.375,5.438H10.75V5.125a.626.626,0,0,0-.625-.625H6.375a.626.626,0,0,0-.625.625v.312H5.125a.626.626,0,0,0-.625.625V7A1.252,1.252,0,0,0,5.75,8.25h.1A2.553,2.553,0,0,0,7.938,10.1v1.271H6.375V12h3.75v-.625H8.563V10.1A2.489,2.489,0,0,0,10.669,8.25h.081A1.252,1.252,0,0,0,12,7V6.063A.626.626,0,0,0,11.375,5.438ZM5.75,7.625A.626.626,0,0,1,5.125,7V6.063H5.75Zm4.375,0A1.875,1.875,0,0,1,8.192,9.5,1.938,1.938,0,0,1,6.375,7.533V5.125h3.75ZM11.375,7a.626.626,0,0,1-.625.625V6.063h.625Z" transform="translate(4660.75 724.5)" fill="#fff"/>
  </g>
</svg>
