<svg xmlns="http://www.w3.org/2000/svg" width="26" height="24" viewBox="0 0 26 24">
  <g id="Group_2690" data-name="Group 2690" transform="translate(-307 -232)">
    <rect id="Rectangle_2549" data-name="Rectangle 2549" width="26" height="24" rx="3" transform="translate(307 232)" fill="#2a6fca"/>
    <g id="home-solid" transform="translate(311.956 234.939)">
      <path id="Path_2636" data-name="Path 2636" d="M14.733,8.969a.41.41,0,0,1-.291-.119L8.589,2.993,2.736,8.85a.41.41,0,0,1-.578-.578L8.3,2.128a.41.41,0,0,1,.578,0l6.144,6.144a.41.41,0,0,1-.291.7Z" fill="#fff"/>
      <path id="Path_2637" data-name="Path 2637" d="M10.915,7.79,6,12.722v4.985a.819.819,0,0,0,.819.819H9.687v-4.1h2.458v4.1h2.867a.819.819,0,0,0,.819-.819V12.693Z" transform="translate(-2.326 -3.413)" fill="#fff"/>
    </g>
  </g>
</svg>
