<svg id="Group_2610" data-name="Group 2610" xmlns="http://www.w3.org/2000/svg" width="28.737" height="28.737" viewBox="0 0 28.737 28.737">
  <g id="Group_2611" data-name="Group 2611">
    <path id="Path_2581" data-name="Path 2581" d="M28.737,14.369A14.369,14.369,0,1,1,14.369,0,14.369,14.369,0,0,1,28.737,14.369" fill="#54469c"/>
    <path id="Path_2582" data-name="Path 2582" d="M48.119,35.456A12.663,12.663,0,1,1,35.456,22.793,12.663,12.663,0,0,1,48.119,35.456" transform="translate(-21.087 -21.087)" fill="#d8ecfe"/>
    <path id="Path_2583" data-name="Path 2583" d="M206.276,152.47v-2.13a.969.969,0,0,1-.842,0v2.13a2.015,2.015,0,0,1,.842,0" transform="translate(-190.06 -139.089)" fill="#fd6930"/>
    <path id="Path_2584" data-name="Path 2584" d="M239.425,199.933a.974.974,0,0,1,.1-.421h-2.13a2.006,2.006,0,0,1,0,.842h2.13a.974.974,0,0,1-.1-.421" transform="translate(-219.625 -184.581)" fill="#fd6930"/>
    <path id="Path_2585" data-name="Path 2585" d="M226.286,168.521l1.183-1.183a.85.85,0,0,1-.6-.6l-1.183,1.183a2.031,2.031,0,0,1,.6.6" transform="translate(-208.801 -154.264)" fill="#fd6930"/>
    <path id="Path_2586" data-name="Path 2586" d="M205.434,231.473v2.13a.966.966,0,0,1,.842,0v-2.13a2.018,2.018,0,0,1-.842,0" transform="translate(-190.06 -214.15)" fill="#fd6930"/>
    <path id="Path_2587" data-name="Path 2587" d="M158.389,200.354a2.015,2.015,0,0,1,0-.842h-2.131a.967.967,0,0,1,0,.842Z" transform="translate(-144.564 -184.581)" fill="#fd6930"/>
    <path id="Path_2588" data-name="Path 2588" d="M173.041,167.119a.85.85,0,0,1-.377.219l1.183,1.183a2.027,2.027,0,0,1,.6-.6l-1.183-1.183a.849.849,0,0,1-.219.377" transform="translate(-159.742 -154.264)" fill="#fd6930"/>
    <path id="Path_2589" data-name="Path 2589" d="M227.093,221.172a.851.851,0,0,1,.377-.219l-1.183-1.183a2.036,2.036,0,0,1-.6.6l1.183,1.183a.849.849,0,0,1,.219-.376" transform="translate(-208.801 -203.323)" fill="#fd6930"/>
    <path id="Path_2590" data-name="Path 2590" d="M173.847,219.77l-1.183,1.183a.85.85,0,0,1,.6.6l1.183-1.183a2.028,2.028,0,0,1-.6-.6" transform="translate(-159.742 -203.323)" fill="#fd6930"/>
    <path id="Path_2591" data-name="Path 2591" d="M177.559,314.644a13.915,13.915,0,0,1-1.884-.054.907.907,0,0,1-.894-.986.959.959,0,0,1,1.059-.722,12.2,12.2,0,0,0,1.652.048.97.97,0,0,1,1.03.78.918.918,0,0,1-.964.935" transform="translate(-161.69 -289.462)" fill="#1e9efd"/>
    <path id="Path_2592" data-name="Path 2592" d="M25.857,35.456a12.681,12.681,0,0,1,11.131-12.57,12.663,12.663,0,1,0,0,25.14,12.681,12.681,0,0,1-11.131-12.57" transform="translate(-21.087 -21.087)" fill="#b3dafe"/>
    <path id="Path_2593" data-name="Path 2593" d="M30.252,43.336A13.084,13.084,0,1,1,43.336,30.252,13.1,13.1,0,0,1,30.252,43.336m0-25.326A12.242,12.242,0,1,0,42.494,30.252,12.256,12.256,0,0,0,30.252,18.01" transform="translate(-15.883 -15.883)" fill="#8379c1"/>
    <path id="Path_2594" data-name="Path 2594" d="M132.692,192.336a1.036,1.036,0,1,1-1.036-1.035,1.036,1.036,0,0,1,1.036,1.035" transform="translate(-120.846 -176.985)" fill="#fe653b"/>
    <path id="Path_2595" data-name="Path 2595" d="M265.891,192.336a1.036,1.036,0,1,1-1.036-1.035,1.036,1.036,0,0,1,1.036,1.035" transform="translate(-244.077 -176.985)" fill="#fe653b"/>
    <path id="Path_2596" data-name="Path 2596" d="M159.257,152.423a.911.911,0,1,1-.912-.911.912.912,0,0,1,.912.911" transform="translate(-145.652 -140.173)" fill="#fe653b"/>
    <path id="Path_2597" data-name="Path 2597" d="M158.4,153.073a.911.911,0,0,1,.292-1.485.911.911,0,1,0,0,1.681.917.917,0,0,1-.292-.2" transform="translate(-145.65 -140.178)" fill="#ef4424"/>
    <path id="Path_2598" data-name="Path 2598" d="M242.151,235.318a.912.912,0,1,1-.911-.911.912.912,0,0,1,.911.911" transform="translate(-222.343 -216.864)" fill="#fe653b"/>
    <path id="Path_2599" data-name="Path 2599" d="M242.151,152.423a.912.912,0,1,1-.911-.911.911.911,0,0,1,.911.911" transform="translate(-222.343 -140.173)" fill="#fe653b"/>
    <path id="Path_2600" data-name="Path 2600" d="M241.3,153.073a.911.911,0,0,1,.292-1.485.911.911,0,1,0,0,1.681.918.918,0,0,1-.292-.2" transform="translate(-222.341 -140.178)" fill="#ef4424"/>
    <path id="Path_2601" data-name="Path 2601" d="M159.257,235.318a.911.911,0,1,1-.912-.911.912.912,0,0,1,.912.911" transform="translate(-145.652 -216.864)" fill="#fe653b"/>
    <path id="Path_2602" data-name="Path 2602" d="M187.526,179.532a2.071,2.071,0,1,1-2.071-2.071,2.071,2.071,0,0,1,2.071,2.071" transform="translate(-169.659 -164.18)" fill="#fe653b"/>
    <path id="Path_2603" data-name="Path 2603" d="M184.837,179.532a2.072,2.072,0,0,1,1.344-1.94,2.071,2.071,0,1,0,0,3.88,2.072,2.072,0,0,1-1.344-1.94" transform="translate(-169.659 -164.18)" fill="#ef4424"/>
    <path id="Path_2604" data-name="Path 2604" d="M199.29,125.735a1.036,1.036,0,1,1-1.036-1.036,1.036,1.036,0,0,1,1.036,1.036" transform="translate(-182.46 -115.367)" fill="#fe653b"/>
    <path id="Path_2605" data-name="Path 2605" d="M198.125,125.735a1.035,1.035,0,0,1,.583-.931,1.036,1.036,0,1,0,0,1.861,1.035,1.035,0,0,1-.583-.93" transform="translate(-182.46 -115.367)" fill="#ef4424"/>
    <path id="Path_2606" data-name="Path 2606" d="M199.29,258.934a1.036,1.036,0,1,1-1.036-1.036,1.036,1.036,0,0,1,1.036,1.036" transform="translate(-182.46 -238.598)" fill="#fe653b"/>
    <path id="Path_2607" data-name="Path 2607" d="M254.227,286.8a1.219,1.219,0,1,1-1.219-1.219,1.219,1.219,0,0,1,1.219,1.219" transform="translate(-232.946 -264.206)" fill="#1ee6a6"/>
    <path id="Path_2608" data-name="Path 2608" d="M252.735,286.8a1.219,1.219,0,0,1,.746-1.124,1.219,1.219,0,1,0,0,2.247,1.219,1.219,0,0,1-.746-1.124" transform="translate(-232.946 -264.206)" fill="#0ed290"/>
    <path id="Path_2609" data-name="Path 2609" d="M64.208,217.485a1.313,1.313,0,1,1-1.313-1.313,1.313,1.313,0,0,1,1.313,1.313" transform="translate(-56.973 -199.994)" fill="#1ee6a6"/>
    <path id="Path_2610" data-name="Path 2610" d="M62.53,217.485a1.313,1.313,0,0,1,.839-1.225,1.313,1.313,0,1,0,0,2.449,1.313,1.313,0,0,1-.839-1.225" transform="translate(-56.973 -199.994)" fill="#0ed290"/>
    <path id="Path_2611" data-name="Path 2611" d="M299.48,149.775a1.068,1.068,0,1,1-1.068-1.068,1.068,1.068,0,0,1,1.068,1.068" transform="translate(-275.092 -137.578)" fill="#fff"/>
    <path id="Path_2612" data-name="Path 2612" d="M298.272,149.775a1.066,1.066,0,0,1,.6-.961,1.068,1.068,0,1,0,0,1.921,1.067,1.067,0,0,1-.6-.961" transform="translate(-275.092 -137.578)" fill="#fff3de"/>
    <path id="Path_2613" data-name="Path 2613" d="M113.183,70.279l.252-.252a1.36,1.36,0,0,1,.407-.28l-.629-.629a.421.421,0,1,0-.6.6Z" transform="translate(-104.075 -63.831)" fill="#1e9efd"/>
    <path id="Path_2614" data-name="Path 2614" d="M148.72,103.84l-.63-.629a1.353,1.353,0,0,1-.28.407l-.252.252.566.566a.421.421,0,1,0,.6-.6" transform="translate(-136.516 -95.487)" fill="#0182fc"/>
    <path id="Path_2615" data-name="Path 2615" d="M100.34,83.122l.6-.6-.566-.566a.421.421,0,0,0-.6.6Z" transform="translate(-92.193 -75.713)" fill="#1e9efd"/>
    <path id="Path_2616" data-name="Path 2616" d="M135.306,116.9l-.6.6.566.566a.421.421,0,0,0,.6-.6Z" transform="translate(-124.63 -108.15)" fill="#0182fc"/>
    <path id="Path_2617" data-name="Path 2617" d="M88.069,95.394l.023-.023-.566-.566a.421.421,0,0,0-.6.6l.755.755a1.358,1.358,0,0,1,.383-.762" transform="translate(-80.311 -87.596)" fill="#1e9efd"/>
    <path id="Path_2618" data-name="Path 2618" d="M120.132,129.742l-.023.023a1.353,1.353,0,0,1-.761.384l.755.755a.421.421,0,1,0,.6-.6Z" transform="translate(-110.416 -120.033)" fill="#0182fc"/>
    <path id="Path_2619" data-name="Path 2619" d="M98,80.745a1.428,1.428,0,0,1,0-2.014l1.6-1.6a1.424,1.424,0,0,1,2.014,2.014l-1.6,1.6a1.428,1.428,0,0,1-2.014,0" transform="translate(-90.282 -70.973)" fill="#1e9efd"/>
    <path id="Path_2620" data-name="Path 2620" d="M99.124,80.972a1.429,1.429,0,0,1,0-2.014l2.089-2.089a1.426,1.426,0,0,0-1.611.28L98,78.75a1.421,1.421,0,0,0,1.329,2.39,1.449,1.449,0,0,1-.205-.169" transform="translate(-90.282 -70.992)" fill="#0182fc"/>
    <path id="Path_2621" data-name="Path 2621" d="M49.56,135.235a.42.42,0,0,1-.3-.123l-.68-.68a.421.421,0,1,1,.6-.6l.68.679a.421.421,0,0,1-.3.719" transform="translate(-44.832 -123.707)" fill="#fff"/>
    <path id="Path_2622" data-name="Path 2622" d="M316.309,208.175a.419.419,0,0,1-.3-.123l-.68-.68a.421.421,0,1,1,.6-.6l.68.68a.421.421,0,0,1-.3.718" transform="translate(-291.62 -191.189)" fill="#fff"/>
    <path id="Path_2623" data-name="Path 2623" d="M161.822,43.269a.421.421,0,0,1-.3-.719l.68-.68a.421.421,0,0,1,.6.6l-.68.68a.42.42,0,0,1-.3.123" transform="translate(-149.322 -38.624)" fill="#fff"/>
    <path id="Path_2624" data-name="Path 2624" d="M291.705,238.882a.421.421,0,0,1-.3-.718l.68-.68a.421.421,0,1,1,.6.6l-.68.679a.418.418,0,0,1-.3.123" transform="translate(-269.485 -219.598)" fill="#fff"/>
    <path id="Path_2625" data-name="Path 2625" d="M192.616,75.811h-.961a.421.421,0,1,1,0-.842h.961a.421.421,0,1,1,0,.842" transform="translate(-176.923 -69.359)" fill="#fff"/>
    <path id="Path_2626" data-name="Path 2626" d="M64.939,170.336a.421.421,0,0,1-.3-.719l.68-.68a.421.421,0,1,1,.6.6l-.68.68a.419.419,0,0,1-.3.123" transform="translate(-59.689 -156.181)" fill="#fff"/>
    <path id="Path_2627" data-name="Path 2627" d="M88.05,278.881a13.9,13.9,0,0,1-1.556-1.064.918.918,0,0,1-.23-1.322.97.97,0,0,1,1.292-.025,12.174,12.174,0,0,0,1.364.933.959.959,0,0,1,.432,1.206.907.907,0,0,1-1.3.272" transform="translate(-79.631 -255.564)" fill="#1e9efd"/>
    <path id="Path_2628" data-name="Path 2628" d="M130.655,303.21a13.985,13.985,0,0,1-1.775-.577.907.907,0,0,1-.578-1.2.958.958,0,0,1,1.217-.4,12.219,12.219,0,0,0,1.557.506.958.958,0,0,1,.751,1.036.907.907,0,0,1-1.171.627" transform="translate(-118.63 -278.441)" fill="#0182fc"/>
    <path id="Path_2629" data-name="Path 2629" d="M240.628,58.726a13.932,13.932,0,0,0-1.157-1.465.986.986,0,0,0-1.04-.313.991.991,0,0,0-.369-1.02,13.957,13.957,0,0,0-1.538-1.09.918.918,0,0,0-1.32.244.97.97,0,0,0,.425,1.22,12.178,12.178,0,0,1,1.348.956,1.013,1.013,0,0,0,1,.176,1.012,1.012,0,0,0,.227.979,12.237,12.237,0,0,1,1.015,1.284.958.958,0,0,0,1.232.345.906.906,0,0,0,.182-1.316" transform="translate(-217.526 -50.576)" fill="#fbd74c"/>
    <path id="Path_2630" data-name="Path 2630" d="M239.691,59.826a12.168,12.168,0,0,0-1.015-1.284,1.05,1.05,0,0,1-.27-.644.285.285,0,0,0-.288-.273,1.051,1.051,0,0,1-.664-.238,12.18,12.18,0,0,0-1.349-.956.992.992,0,0,1-.469-1.107.73.73,0,0,0-.433.365.971.971,0,0,0,.425,1.221,12.16,12.16,0,0,1,1.349.956,1.013,1.013,0,0,0,1,.176,1.013,1.013,0,0,0,.226.979,12.194,12.194,0,0,1,1.015,1.284.959.959,0,0,0,1.233.345.731.731,0,0,0,.332-.415.982.982,0,0,1-1.088-.408" transform="translate(-217.525 -51.184)" fill="#fac600"/>
    <path id="Path_2631" data-name="Path 2631" d="M158.4,235.971a.911.911,0,0,1,.292-1.485.911.911,0,1,0,0,1.681.916.916,0,0,1-.292-.2" transform="translate(-145.65 -216.873)" fill="#ef4424"/>
    <path id="Path_2632" data-name="Path 2632" d="M241.3,235.971a.911.911,0,0,1,.292-1.485.911.911,0,1,0,0,1.681.918.918,0,0,1-.292-.2" transform="translate(-222.341 -216.873)" fill="#ef4424"/>
    <path id="Path_2633" data-name="Path 2633" d="M198.125,258.934a1.035,1.035,0,0,1,.583-.93,1.036,1.036,0,1,0,0,1.86,1.034,1.034,0,0,1-.583-.93" transform="translate(-182.46 -238.598)" fill="#ef4424"/>
    <path id="Path_2634" data-name="Path 2634" d="M131.523,192.333a1.035,1.035,0,0,1,.583-.93,1.036,1.036,0,1,0,0,1.861,1.035,1.035,0,0,1-.583-.93" transform="translate(-120.842 -176.981)" fill="#ef4424"/>
    <path id="Path_2635" data-name="Path 2635" d="M264.726,192.333a1.034,1.034,0,0,1,.583-.93,1.036,1.036,0,1,0,0,1.861,1.035,1.035,0,0,1-.583-.93" transform="translate(-244.077 -176.981)" fill="#ef4424"/>
  </g>
</svg>
