<svg id="Group_2295" data-name="Group 2295" xmlns="http://www.w3.org/2000/svg" xmlns:xlink="http://www.w3.org/1999/xlink" width="555.226" height="674.759" viewBox="0 0 555.226 674.759">
  <defs>
    <clipPath id="clip-path">
      <rect id="Rectangle_2306" data-name="Rectangle 2306" width="555.226" height="674.759" fill="none"/>
    </clipPath>
    <clipPath id="clip-path-2">
      <rect id="Rectangle_2291" data-name="Rectangle 2291" width="555.225" height="674.761" fill="none"/>
    </clipPath>
    <clipPath id="clip-path-3">
      <rect id="Rectangle_2280" data-name="Rectangle 2280" width="102.599" height="59.235" fill="none"/>
    </clipPath>
    <clipPath id="clip-path-4">
      <path id="Path_2136" data-name="Path 2136" d="M446.893,1218.055l-15.572-2.409-5.741,12.371,15.579,2.41a14.544,14.544,0,0,0,3.826,8.254l-11.4,6.583,15.686,9.056,11.4-6.583a57.385,57.385,0,0,0,14.3,2.209l4.174,8.995,21.427-3.315-4.172-8.991a39.2,39.2,0,0,0,5.779-2.707,28.715,28.715,0,0,0,4.689-3.337L522.437,1243l5.741-12.371-15.579-2.41a14.549,14.549,0,0,0-3.826-8.254l11.4-6.583-15.686-9.056-11.4,6.583a57.391,57.391,0,0,0-14.3-2.209l-4.174-8.995-21.427,3.315,4.172,8.99a39.18,39.18,0,0,0-5.779,2.707,28.718,28.718,0,0,0-4.689,3.337m17.274,3.929c7.02-4.053,18.4-4.053,25.423,0s7.02,10.625,0,14.678-18.4,4.053-25.423,0-7.021-10.625,0-14.678" transform="translate(-425.58 -1199.706)" fill="none"/>
    </clipPath>
    <linearGradient id="linear-gradient" x1="-1.879" y1="2.217" x2="-1.874" y2="2.217" gradientUnits="objectBoundingBox">
      <stop offset="0" stop-color="#ae53fc"/>
      <stop offset="1" stop-color="#3b48ed"/>
    </linearGradient>
    <clipPath id="clip-path-5">
      <rect id="Rectangle_2282" data-name="Rectangle 2282" width="70.887" height="40.927" fill="none"/>
    </clipPath>
    <clipPath id="clip-path-6">
      <path id="Path_2143" data-name="Path 2143" d="M631.956,1121.134l-10.759-1.664-3.967,8.547,10.764,1.666a10.049,10.049,0,0,0,2.643,5.7l-7.877,4.548,10.837,6.257,7.878-4.548a39.634,39.634,0,0,0,9.877,1.526l2.884,6.215,14.8-2.29-2.883-6.212a26.98,26.98,0,0,0,3.993-1.87,19.831,19.831,0,0,0,3.24-2.305l10.759,1.665,3.967-8.548-10.764-1.665a10.052,10.052,0,0,0-2.643-5.7l7.877-4.548-10.838-6.257-7.877,4.548a39.66,39.66,0,0,0-9.878-1.526l-2.884-6.215-14.8,2.29,2.883,6.212a27.012,27.012,0,0,0-3.993,1.87,19.852,19.852,0,0,0-3.24,2.305m11.935,2.715c4.851-2.8,12.715-2.8,17.565,0s4.85,7.341,0,10.141-12.715,2.8-17.565,0-4.85-7.341,0-10.141" transform="translate(-617.231 -1108.456)" fill="none"/>
    </clipPath>
    <linearGradient id="linear-gradient-2" x1="-3.944" y1="4.219" x2="-3.938" y2="4.219" xlink:href="#linear-gradient"/>
    <clipPath id="clip-path-7">
      <rect id="Rectangle_2283" data-name="Rectangle 2283" width="144.212" height="235.485" fill="none"/>
    </clipPath>
    <clipPath id="clip-path-8">
      <rect id="Rectangle_2284" data-name="Rectangle 2284" width="88.275" height="182.417" fill="none"/>
    </clipPath>
    <clipPath id="clip-path-9">
      <rect id="Rectangle_2285" data-name="Rectangle 2285" width="117.733" height="119.755" fill="none"/>
    </clipPath>
    <clipPath id="clip-path-10">
      <rect id="Rectangle_2286" data-name="Rectangle 2286" width="163.835" height="129.028" fill="none"/>
    </clipPath>
    <clipPath id="clip-path-11">
      <rect id="Rectangle_2287" data-name="Rectangle 2287" width="148.734" height="242.871" fill="none"/>
    </clipPath>
    <clipPath id="clip-path-12">
      <rect id="Rectangle_2288" data-name="Rectangle 2288" width="91.046" height="188.138" fill="none"/>
    </clipPath>
    <clipPath id="clip-path-13">
      <rect id="Rectangle_2289" data-name="Rectangle 2289" width="121.424" height="123.512" fill="none"/>
    </clipPath>
    <clipPath id="clip-path-14">
      <rect id="Rectangle_2290" data-name="Rectangle 2290" width="168.971" height="133.074" fill="none"/>
    </clipPath>
    <clipPath id="clip-path-15">
      <path id="Path_2167" data-name="Path 2167" d="M462.11,740.992,402.582,774.7a11.806,11.806,0,0,0-5.988,10.272v82.969L467.3,827.9V744.019a3.471,3.471,0,0,0-5.193-3.027" transform="translate(-396.594 -740.535)" fill="#38a32c"/>
    </clipPath>
    <clipPath id="clip-path-17">
      <path id="Path_2169" data-name="Path 2169" d="M420.1,631.893c-11.67,6.232-20.807,22.331-20.807,36.649v30.73a4.548,4.548,0,1,0,9.1,0v-30.73c0-10.884,7.325-23.994,16-28.623,3.143-1.681,5.957-1.953,7.935-.767,2.4,1.44,3.775,4.987,3.775,9.735v30.73a4.548,4.548,0,0,0,9.1,0v-30.73c0-8.023-2.986-14.415-8.192-17.536a14.313,14.313,0,0,0-7.465-2.041,20.135,20.135,0,0,0-9.435,2.582" transform="translate(-399.297 -629.311)" fill="#38a32c"/>
    </clipPath>
    <clipPath id="clip-path-19">
      <path id="Path_2178" data-name="Path 2178" d="M755.738,769.508,653.186,828.717a3.16,3.16,0,0,0-1.58,2.737v20.063a3.16,3.16,0,0,0,4.74,2.737L758.9,795.045a3.159,3.159,0,0,0,1.58-2.737V772.245a3.165,3.165,0,0,0-3.165-3.165,3.132,3.132,0,0,0-1.575.428" transform="translate(-651.606 -769.08)" fill="#2a6fca"/>
    </clipPath>
    <clipPath id="clip-path-21">
      <path id="Path_2185" data-name="Path 2185" d="M1043.725,113.71l-123.4,71.243c-4.361,2.517-7.929,8.672-7.929,13.676V300.5c0,5,3.568,7.038,7.929,4.521l123.4-71.243c4.36-2.518,7.928-8.672,7.928-13.676V118.23c0-3.546-1.792-5.6-4.388-5.6a7.185,7.185,0,0,0-3.54,1.08" transform="translate(-912.4 -112.63)" fill="#38a32c"/>
    </clipPath>
    <clipPath id="clip-path-23">
      <path id="Path_2210" data-name="Path 2210" d="M394.468,1076.485l-15.6,17.528,10.5-1.094,15.6-17.528Z" transform="translate(-378.867 -1075.392)" fill="none"/>
    </clipPath>
    <linearGradient id="linear-gradient-3" x1="-6.574" y1="10.077" x2="-6.557" y2="10.077" xlink:href="#linear-gradient"/>
    <clipPath id="clip-path-25">
      <path id="Path_2225" data-name="Path 2225" d="M447.767,105.339c-.591-4.321,1.8-9.439,5.277-11.495,3.548-2,6.847-.163,7.466,4.139.557,4.369-1.791,9.478-5.339,11.524a5.594,5.594,0,0,1-2.79.819c-2.321,0-4.186-1.828-4.614-4.987m4.7-15.768c-5.436,3.13-9.089,11.111-8.21,17.794.941,6.693,6.078,9.6,11.509,6.463,5.459-3.15,9.147-11.149,8.229-17.862-.658-4.83-3.551-7.677-7.171-7.677a8.728,8.728,0,0,0-4.358,1.281" transform="translate(-444.122 -88.29)" fill="none"/>
    </clipPath>
    <linearGradient id="linear-gradient-4" x1="-9.307" y1="22.133" x2="-9.286" y2="22.133" xlink:href="#linear-gradient"/>
    <linearGradient id="linear-gradient-5" x1="-22.082" y1="23.237" x2="-22.061" y2="23.237" xlink:href="#linear-gradient"/>
    <clipPath id="clip-path-27">
      <path id="Path_2228" data-name="Path 2228" d="M265.232,258.993a7.358,7.358,0,0,0-2.777,2.978,28.154,28.154,0,0,1-1.571,2.808,4.822,4.822,0,0,1-1.522,1.362,2.526,2.526,0,0,1-2.3.317,8.223,8.223,0,0,0-2.254-.766,3.949,3.949,0,0,0-2.261.627,7.378,7.378,0,0,0-2.787,2.982,28.083,28.083,0,0,1-1.57,2.808,4.787,4.787,0,0,1-1.523,1.362,2.506,2.506,0,0,1-2.3.317,8.317,8.317,0,0,0-2.254-.766,3.966,3.966,0,0,0-2.259.627,7.4,7.4,0,0,0-2.788,2.982,28.543,28.543,0,0,1-1.57,2.808,4.8,4.8,0,0,1-1.524,1.362,2.546,2.546,0,0,1-2.313.328,8.1,8.1,0,0,0-2.254-.766,3.947,3.947,0,0,0-2.271.63,1.229,1.229,0,0,0-.522,1.132c.059.436.392.62.735.422a2.525,2.525,0,0,1,2.313-.324,8.332,8.332,0,0,0,2.254.767,3.861,3.861,0,0,0,2.205-.6,7.532,7.532,0,0,0,2.855-3.021,27.733,27.733,0,0,1,1.559-2.8,4.874,4.874,0,0,1,1.533-1.369,2.518,2.518,0,0,1,2.3-.317,8.628,8.628,0,0,0,2.244.774,3.885,3.885,0,0,0,2.205-.6,7.522,7.522,0,0,0,2.853-3.02,30.7,30.7,0,0,1,1.559-2.8,4.932,4.932,0,0,1,1.535-1.369,2.5,2.5,0,0,1,2.292-.31,8.986,8.986,0,0,0,2.253.766,3.823,3.823,0,0,0,2.2-.6,7.473,7.473,0,0,0,2.855-3.02,30.294,30.294,0,0,1,1.559-2.8,4.9,4.9,0,0,1,1.524-1.362,1.227,1.227,0,0,0,.53-1.153.488.488,0,0,0-.46-.483.565.565,0,0,0-.282.082" transform="translate(-226.597 -258.911)" fill="none"/>
    </clipPath>
    <linearGradient id="linear-gradient-6" x1="-2.598" y1="23.114" x2="-2.587" y2="23.114" xlink:href="#linear-gradient"/>
  </defs>
  <g id="Group_2294" data-name="Group 2294" clip-path="url(#clip-path)">
    <g id="Group_2265" data-name="Group 2265" transform="translate(0 -0.002)">
      <g id="Group_2264" data-name="Group 2264" clip-path="url(#clip-path-2)">
        <g id="Group_2234" data-name="Group 2234" transform="translate(192.774 543.43)" opacity="0.44">
          <g id="Group_2233" data-name="Group 2233">
            <g id="Group_2232" data-name="Group 2232" clip-path="url(#clip-path-3)">
              <g id="Group_2231" data-name="Group 2231">
                <g id="Group_2230" data-name="Group 2230" clip-path="url(#clip-path-4)">
                  <rect id="Rectangle_2279" data-name="Rectangle 2279" width="102.599" height="59.235" transform="translate(0)" fill="url(#linear-gradient)"/>
                </g>
              </g>
            </g>
          </g>
        </g>
        <path id="Path_2137" data-name="Path 2137" d="M502.4,1258.51c-4.923-4.049-4.256-9.673,2.012-13.291,7.02-4.054,18.4-4.053,25.423,0,5.6,3.231,6.727,8.063,3.4,11.944a13,13,0,0,0-3.4-2.734c-7.021-4.053-18.4-4.053-25.423,0a12.985,12.985,0,0,0-3.4,2.734,11.269,11.269,0,0,0,1.387,1.348" transform="translate(-273.052 -679.51)" fill="#073669"/>
        <path id="Path_2138" data-name="Path 2138" d="M587.7,1281.377a28.716,28.716,0,0,0,4.689-3.336l15.572,2.409,5.7-12.286.04.006-.04.085.04.006-.04.085.04.006-.04.085.04.006-.04.085.04.006-.04.085.04.006-.04.085.04.006-.04.085.04.006-.04.085.04.006-.04.085.04.006-.04.085.04.006-.04.085.04.006-.04.085.04.006-.04.085.04.006-.04.085.04.006-.04.085.04.006-.04.085.04.006-.04.085.04.006-.04.085.04.006-.04.085.04.006-.04.085.04.006-.04.085.04.006-.04.085.04.006-.04.085.04.006-.04.085.04.006-.04.085.04.006-.04.084.04.006-.04.085.04.006-.04.085.04.006-.04.085.04.006-.04.085.04.006-.04.085.04.006-.04.085.04.006-.04.085.04.006-.04.085.04.006-.04.085.04.006-.04.085.04.006-.04.085.04.006-.04.085.04.006-.04.086.04.006-.04.085.04.006-.04.085.04.006-.04.085.04.006-.04.085.04.006-.04.085.04.006-.04.085.04.006-.04.085.04.006-.04.085.04.006-.04.085.04.006-.04.085.04.006-.04.085.04.006-.04.085.04.006-.04.085.04.006-.04.085.04.006-.04.085.04.006-.04.085.04.006-.04.085.04.006-.04.085.04.006-.04.085.04.006-.04.085.04.006-.04.085.04.006-.04.085.04.006-.04.085.04.006-.04.085.04.006-.04.085.04.006-.04.085.04.006-.04.085.04.006-.04.085.04.006-.04.085.04.006-.04.085.04.006-.04.085.04.006-.04.085.04.006-.04.085.04.006-.04.085.04.006-.04.086.04.006-.04.085.04.006-.04.085.04.006-.04.085.04.006-.04.085.04.006-.04.085.04.006-.04.085.04.006-.04.085.04.006-.04.085.04.006-.04.085.04.006-.04.085.04.006-.04.085.04.006-.04.085.04.006-.04.085.04.006-.04.085.04.006-.04.085.04.006-.04.085.04.006-.04.085.04.006-.04.085.04.005-.04.085.04.006-.04.085.04.006-.04.085.04.006-.04.085.04.006-.04.084.04.006-.04.085.04.006-.04.085.04.006-.04.085.04.006-5.742,12.371-15.572-2.409a28.7,28.7,0,0,1-4.689,3.337c-.715.413-1.459.8-2.219,1.169l.612,1.318-4.173-8.991a39.136,39.136,0,0,0,5.779-2.707" transform="translate(-318.328 -693.724)" fill="#073669"/>
        <path id="Path_2139" data-name="Path 2139" d="M458.937,1309.338l11.4-6.582a57.384,57.384,0,0,0,14.3,2.208l4.175,9,21.427-3.315-.039.006.039.085-.039.006.039.085-.039.006.039.085-.039.006.039.085-.039.006.039.085-.039.006.039.085-.039.006.039.085-.039.006.039.085-.039.006.039.085-.039.006.039.085-.039.006.039.085-.039.005.039.085-.039.006.039.085-.039.006.039.085-.039.006.039.085-.039.006.039.085-.039.006.039.085-.039.006.039.085-.039.006.039.085-.039.006.039.085-.039.006.039.085-.039.006.039.085-.039.006.039.085-.039.006.039.085-.039.006.039.085-.039.006.039.085-.039.006.039.085-.039.006.039.085-.039.006.039.085-.039.006.039.085-.039.006.039.085-.039.006.039.085-.039.006.039.085-.039.006.039.085-.039.006.039.085-.039.006.039.085-.039.006.039.085-.039.006.039.085-.039.006.039.085-.039.006.039.085-.039.006.039.085-.039.006.039.085-.039.006.039.085-.039.006.039.085-.039.006.039.085-.039.006.039.085-.039.006.039.085-.039.006.039.085-.039.006.039.085-.039.006.039.085-.039.006.039.085-.039.006.039.085-.039.006.039.085-.039.006.039.085-.039.006.039.085-.039.006.039.085-.039.007.039.085-.039.006.039.085-.039.006.039.085-.039.006.039.085-.039.006.039.085-.039.006.039.085-.039.006.039.085-.039.006.039.085-.039.006.039.085-.039.006.039.085-.039.006.039.085-.039.006.039.085-.039.006.039.085-.039.006.039.085-.039.006.039.085-.039.006.039.085-.039.006.039.085-.039.006.039.085-.039.006.039.085-.039.006.039.085-.039.006.039.085-.039.006.039.085-.039.006.039.085-.039.006.039.085-.039.006.039.085-.039.005.039.085-.039.006.039.085-.039.006.039.085-.039.006.039.085-.039.006.039.085-.039.006.039.085-.039.006.039.085-.039.006.039.085-.039.006.039.085-.039.006.039.085-.039.006.039.085-.039.006.039.085-.039.006.039.085-.039.006.039.085-.039.006.039.085-.039.006.039.085-.039.006.039.085-.039.006.039.085-.039.006.039.085-.039.006.039.085-21.427,3.315-4.175-8.995a57.4,57.4,0,0,1-14.3-2.209l-11.4,6.583-15.686-9.056.079-.046-.079-.046.079-.045-.079-.046.079-.046-.079-.045.079-.046-.079-.046.079-.045-.079-.046.079-.046-.079-.045.079-.046-.079-.046.079-.045-.079-.046.079-.046-.079-.045.079-.046-.079-.045.079-.046-.079-.046.079-.045-.079-.046.079-.046-.079-.046.079-.045-.079-.046.079-.045-.079-.046.079-.046-.079-.045.079-.046-.079-.046.079-.046-.079-.045.079-.046-.079-.045.079-.046-.079-.046.079-.045-.079-.046.079-.046-.079-.046.079-.045-.079-.046.079-.045-.079-.046.079-.046-.079-.045.079-.046-.079-.046.079-.045-.079-.046.079-.046-.079-.046.079-.045-.079-.046.079-.045-.079-.046.079-.046-.079-.045.079-.046-.079-.046.079-.045-.079-.045.079-.046-.079-.045.079-.046-.079-.046.079-.046-.079-.046.079-.046-.079-.045.079-.046-.079-.046.079-.045-.079-.046.079-.046-.079-.045.079-.046-.079-.046.079-.045-.079-.046.079-.046-.079-.045.079-.046-.079-.046.079-.045-.079-.046.079-.046-.079-.046.079-.046-.079-.046.079-.045-.079-.046.079-.046-.079-.045.079-.046-.079-.045.079-.046-.079-.046.079-.046-.079-.045.079-.046-.079-.045.079-.046-.079-.046.079-.046-.079-.045.079-.046-.079-.045.079-.046-.079-.046.079-.045-.079-.046.079-.046-.079-.045.079-.046-.079-.046.079-.045-.079-.046.079-.046-.079-.045.079-.046-.079-.046.079-.045-.079-.046.079-.046-.079-.045.079-.046-.079-.046.079-.046-.079-.045.079-.046-.079-.045.079-.046-.079-.045.079-.046-.079-.046.079-.046-.079-.045.079-.046-.079-.046.079-.045-.079-.046.079-.046-.079-.045.079-.046-.079-.045.079-.046-.079-.046.079-.046-.079-.045.079-.046-.079-.045.079-.046-.079-.046.079-.046-.079-.046.079-.046-.079-.046.079-.045-.079-.046.079-.046-.079-.045.079-.046-.079-.045.079-.046-.079-.046.079-.045-.079-.046.079-.046-.079-.045.079-.046-.079-.046.079-.046-.079-.045.079-.046-.079-.046.079-.046-.079-.046.079-.046-.079-.046.079-.046-.079-.045.079-.046-.079-.046.079-.045-.079-.046.079-.046-.079-.045.079-.046-.079-.046.079-.046-.079-.046.079-.045-.079-.046.079-.045-.079-.046.079-.045-.079-.046Z" transform="translate(-242.473 -711.294)" fill="#073669"/>
        <path id="Path_2140" data-name="Path 2140" d="M425.619,1262.214l-.039-.006,15.579,2.41a14.549,14.549,0,0,0,3.826,8.254l-3.66,2.113c-.073-.385-.131-.771-.167-1.156l-15.579-2.41.039-.085-.039-.006.039-.085-.039-.006.039-.085-.039-.006.039-.084-.039-.007.039-.085-.039-.006.039-.085-.039-.006.039-.085-.039-.006.039-.085-.039-.006.039-.085-.039-.006.039-.085-.039-.006.039-.085-.039-.006.039-.085-.039-.006.039-.085-.039-.006.039-.085-.039-.006.039-.085-.039-.006.039-.084-.039-.006.039-.085-.039-.006.039-.085-.039-.006.039-.085-.039-.006.039-.085-.039-.006.039-.085-.039-.006.039-.084-.039-.006.039-.085-.039-.006.039-.085-.039-.006.039-.085-.039-.006.039-.085-.039-.006.039-.085-.039-.006.039-.085-.039-.006.039-.085-.039-.006.039-.085-.039-.006.039-.085-.039-.006.039-.085-.039-.006.039-.085-.039-.006.039-.085-.039-.006.039-.085-.039-.006.039-.085-.039-.006.039-.085-.039-.006.039-.085-.039-.006.039-.085-.039-.006.039-.085-.039-.006.039-.085-.039-.006.039-.085-.039-.006.039-.085-.039-.006.039-.085-.039-.006.039-.085-.039-.006.039-.085-.039-.006.039-.085-.039-.006.039-.085-.039-.006.039-.085-.039-.006.039-.085-.039-.006.039-.085-.039-.006.039-.085-.039-.006.039-.085-.039-.006.039-.085-.039-.006.039-.085-.039-.006.039-.085-.039-.006.039-.085-.039-.006.039-.085-.039-.006.039-.085-.039-.006.039-.085-.039-.006.039-.085-.039-.006.039-.085-.039-.006.039-.085-.039-.006.039-.085-.039-.006.039-.085-.039-.006.039-.085-.039-.006.039-.085-.039-.006.039-.085-.039-.006.039-.085-.039-.006.039-.085-.039-.006.039-.085-.039-.006.039-.085-.039-.006.039-.085-.039-.006.039-.085-.039-.006.039-.085-.039-.006.039-.085-.039-.006.039-.085-.039-.006.039-.085-.039-.006.039-.085-.039-.006.039-.085-.039-.006.039-.085-.039-.006.039-.086-.039-.005.039-.085-.039-.006.039-.085-.039-.006.039-.085-.039-.006.039-.085-.039-.006.039-.085-.039-.006.039-.085-.039-.006.039-.085-.039-.006.039-.085-.039-.006.039-.085-.039-.006.039-.085-.039-.006.039-.085-.039-.006.039-.085-.039-.006.039-.085-.039-.006.039-.085-.039-.006.039-.085-.039-.006.039-.085-.039-.006.039-.085-.039-.006.039-.085-.039-.006Z" transform="translate(-232.806 -690.466)" fill="#073669"/>
        <path id="Path_2141" data-name="Path 2141" d="M487.144,1217.656l-.612-1.319.039-.006-.039-.085.039-.006-.039-.085.039-.006-.039-.085.039-.006-.039-.085.039-.006-.039-.085.039-.006-.039-.085.039-.006-.039-.085.039-.006-.039-.085.039-.006-.039-.085.039-.006-.039-.085.039-.006-.039-.085.039-.006-.039-.086.039-.006-.039-.085.039-.006-.039-.085.039-.006-.039-.085.039-.006-.039-.085.039-.006-.039-.085.039-.006-.039-.084.039-.006-.039-.085.039-.006-.039-.085.039-.006-.039-.085.039-.006-.039-.085.039-.006-.039-.085.039-.006-.039-.085.039-.006-.039-.085.039-.006-.039-.085.039-.006-.039-.085.039-.007-.039-.085.039-.006-.039-.085.039-.006-.039-.085.039-.006-.039-.085.039-.006-.039-.085.039-.006-.039-.085.039-.006-.039-.085.039-.006-.039-.085.039-.006-.039-.085.039-.006-.039-.084.039-.006-.039-.086.039-.005-.039-.085.039-.006-.039-.085.039-.006-.039-.085.039-.006-.039-.085.039-.006-.039-.085.039-.006-.039-.085.039-.006-.039-.085.039-.006-.039-.086.039-.006-.039-.085.039-.006-.039-.085.039-.006-.039-.085.039-.006-.039-.085.039-.006-.039-.085.039-.006-.039-.085.039-.006-.039-.085.039-.006-.039-.085.039-.006-.039-.085.039-.006-.039-.085.039-.006-.039-.085.039-.006-.039-.085.039-.006-.039-.085.039-.006-.039-.085.039-.006-.039-.085.039-.006-.039-.085.039-.006-.039-.085.039-.006-.039-.085.039-.006-.039-.085.039-.006-.039-.085.039-.006-.039-.085.039-.006-.039-.085.039-.006-.039-.085.039-.006-.039-.085.039-.006-.039-.085.039-.006-.039-.085.039-.006-.039-.086.039-.006-.039-.085.039-.006-.039-.085.039-.006-.039-.085.039-.006-.039-.085.039-.006-.039-.085.039-.006-.039-.085.039-.006-.039-.086.039-.006-.039-.085.039-.006-.039-.085.039-.006-.039-.085.039-.006-.039-.085.039-.006-.039-.085.039-.006-.039-.085.039-.006-.039-.085.039-.006-.039-.085.039-.006-.039-.085.039-.006-.039-.085.039-.006-.039-.085.039-.006-.039-.085.039-.006-.039-.085.039-.006-.039-.085.039-.006-.039-.085.039-.006-.039-.085.039-.006-.039-.085.039-.006-.039-.085.039-.006-.039-.085.039-.006-.039-.085.039-.006,4.133,8.906c-1.23.464-2.417.98-3.563,1.539h0" transform="translate(-266.149 -660.382)" fill="#073669"/>
        <path id="Path_2142" data-name="Path 2142" d="M612.9,1243.581a15.038,15.038,0,0,0-3.659-7.1l11.4-6.583-.079.046.079.045-.079.046.079.046-.079.045.079.046-.079.046.079.046-.079.046.079.046-.079.045.079.046-.079.046.079.045-.079.046.079.046-.079.045.079.046-.079.046.079.045-.079.046.079.045-.079.046.079.046-.079.046.079.046-.079.046.079.046-.079.045.079.046-.079.045.079.046-.079.046.079.045-.079.046.079.046-.079.045.079.046-.079.046.079.046-.079.045.079.046-.079.045.079.046-.079.046.079.046-.079.045.079.046-.079.046.079.045-.079.046.079.046-.079.045.079.046-.079.045.079.046-.079.046.079.045-.079.046.079.046-.079.045.079.046-.079.046.079.045-.079.046.079.046-.079.045.079.046-.079.046.079.046-.079.045.079.045-.079.046.079.046-.079.046.079.046-.079.046.079.046-.079.045.079.046-.079.045.079.046-.079.046.079.046-.079.045.079.046-.079.046.079.045-.079.046.079.045-.079.046.079.046-.079.046.079.046-.079.046.079.045-.079.046.079.046-.079.046.079.046-.079.046.079.045-.079.046.079.046-.079.045.079.046-.079.046.079.045-.079.046.079.046-.079.045.079.046-.079.046.079.045-.079.046.079.046-.079.045.079.045-.079.046.079.045-.079.046.079.046-.079.046.079.046-.079.046.079.045-.079.046.079.046-.079.045.079.046-.079.046.079.045-.079.046.079.046-.079.045.079.046-.079.046.079.045-.079.046.079.046-.079.046.079.046-.079.046.079.045-.079.046.079.046-.079.045.079.046-.079.045.079.046-.079.046.079.046-.079.045.079.046-.079.046.079.045-.079.046.079.045-.079.046.079.046-.079.045.079.046-.079.046.079.046-.079.046.079.046-.079.046.079.046-.079.046.079.045-.079.046.079.046-.079.045.079.046-.079.046.079.045-.079.046.079.046-.079.045.079.046-.079.046.079.046-.079.046.079.046-.079.045.079.046-.079.046.079.045-.079.046.079.046-.079.046.079.046-.079.046.079.045-.079.046.079.046-.079.045.079.046-.079.046.079.045-.079.046.079.046Z" transform="translate(-333.275 -672.793)" fill="#073669"/>
        <g id="Group_2239" data-name="Group 2239" transform="translate(279.586 502.097)" opacity="0.44">
          <g id="Group_2238" data-name="Group 2238">
            <g id="Group_2237" data-name="Group 2237" clip-path="url(#clip-path-5)">
              <g id="Group_2236" data-name="Group 2236">
                <g id="Group_2235" data-name="Group 2235" clip-path="url(#clip-path-6)">
                  <rect id="Rectangle_2281" data-name="Rectangle 2281" width="70.887" height="40.927" fill="url(#linear-gradient-2)"/>
                </g>
              </g>
            </g>
          </g>
        </g>
        <path id="Path_2144" data-name="Path 2144" d="M670.309,1149.085c-3.4-2.8-2.941-6.683,1.39-9.183,4.85-2.8,12.715-2.8,17.565,0,3.867,2.233,4.648,5.572,2.348,8.253a8.966,8.966,0,0,0-2.348-1.889c-4.85-2.8-12.715-2.8-17.565,0a8.973,8.973,0,0,0-2.348,1.889,7.8,7.8,0,0,0,.958.931" transform="translate(-365.452 -622.412)" fill="#073669"/>
        <path id="Path_2145" data-name="Path 2145" d="M729.241,1164.884a19.832,19.832,0,0,0,3.24-2.306l10.759,1.665,3.94-8.489.027,0-.027.058.027,0-.027.059.027,0-.027.059.027,0-.027.059.027,0-.027.059.027,0-.027.059.027,0-.027.059.027,0-.027.059.027,0-.027.059.027,0-.027.059.027,0-.027.059.027,0-.027.058.027,0-.027.059.027,0-.027.059.027,0-.027.059.027,0-.027.059.027,0-.027.059.027,0-.027.059.027,0-.027.059.027,0-.027.059.027,0-.027.059.027,0-.027.059.027,0-.027.058.027,0-.027.059.027,0-.027.059.027,0-.027.059.027,0-.027.059.027,0-.027.059.027,0-.027.059.027,0-.027.059.027,0-.027.058.027,0-.027.058.027,0-.027.058.027,0-.027.058.027,0-.027.059.027,0-.027.059.027,0-.027.059.027,0-.027.059.027,0-.027.059.027,0-.027.059.027,0-.027.059.027,0-.027.058.027,0-.027.058.027,0-.027.059.027,0-.027.059.027,0-.027.059.027,0-.027.059.027,0-.027.059.027,0-.027.059.027,0-.027.059.027,0-.027.058.027,0-.027.058.027,0-.027.058.027,0-.027.058.027,0-.027.059.027,0-.027.059.027,0-.027.059.027,0-.027.059.027,0-.027.059.027,0-.027.059.027,0-.027.058.027,0-.027.058.027,0-.027.058.027,0-.027.059.027,0-.027.059.027,0-.027.059.027,0-.027.059.027,0-.027.059.027,0-.027.059.027,0-.027.059.027,0-.027.059.027,0-.027.059.027,0-.027.059.027,0-.027.058.027,0-.027.059.027,0-.027.059.027,0-.027.059.027,0-.027.059.027,0-.027.059.027,0-.027.059.027,0-.027.059.027,0-.027.059.027,0-.027.059.027,0-.027.058.027,0-.027.059.027,0-.027.059.027,0-.027.059.027,0-.027.059.027,0-.027.059.027,0-.027.059.027,0-.027.059.027,0-.027.059.027,0-.027.058.027,0-.027.059.027,0-.027.059.027,0-.027.059.027,0-.027.059.027,0-.027.059.027,0-.027.059.027,0-.027.059.027,0-3.967,8.548-10.759-1.665a19.84,19.84,0,0,1-3.24,2.306c-.494.285-1.008.552-1.533.807l.423.911-2.883-6.212a27.027,27.027,0,0,0,3.993-1.87" transform="translate(-396.734 -632.233)" fill="#073669"/>
        <path id="Path_2146" data-name="Path 2146" d="M640.277,1184.2l7.877-4.548a39.635,39.635,0,0,0,9.878,1.526l2.884,6.215,14.8-2.29-.027,0,.027.059-.027,0,.027.059-.027,0,.027.059-.027,0,.027.059-.027,0,.027.058-.027,0,.027.059-.027,0,.027.059-.027,0,.027.059-.027,0,.027.059-.027,0,.027.059-.027,0,.027.059-.027,0,.027.059-.027,0,.027.059-.027,0,.027.059-.027,0,.027.059-.027,0,.027.059-.027,0,.027.059-.027,0,.027.059-.027,0,.027.059-.027,0,.027.059-.027,0,.027.059-.027,0,.027.059-.027,0,.027.059-.027,0,.027.059-.027,0,.027.059-.027,0,.027.058-.027,0,.027.059-.027,0,.027.059-.027,0,.027.059-.027,0,.027.059-.027,0,.027.059-.027,0,.027.059-.027,0,.027.059-.027,0,.027.059-.027,0,.027.059-.027,0,.027.058-.027,0,.027.059-.027,0,.027.059-.027,0,.027.059-.027,0,.027.059-.027,0,.027.059-.027,0,.027.059-.027,0,.027.059-.027,0,.027.059-.027,0,.027.059-.027,0,.027.058-.027,0,.027.059-.027,0,.027.058-.027,0,.027.059-.027,0,.027.059-.027,0,.027.059-.027,0,.027.059-.027,0,.027.059-.027,0,.027.059-.027,0,.027.059-.027,0,.027.058-.027,0,.027.059-.027,0,.027.058-.027,0,.027.059-.027,0,.027.059-.027,0,.027.059-.027,0,.027.059-.027,0,.027.059-.027,0,.027.059-.027,0,.027.058-.027,0,.027.058-.027,0,.027.058-.027,0,.027.059-.027,0,.027.059-.027,0,.027.059-.027,0,.027.059-.027,0,.027.059-.027,0,.027.059-.027,0,.027.059-.027,0,.027.059-.027,0,.027.058-.027,0,.027.058-.027,0,.027.058-.027,0,.027.059-.027,0,.027.059-.027,0,.027.059-.027,0,.027.059-.027,0,.027.059-.027,0,.027.059-.027,0,.027.059-.027,0,.027.058-.027,0,.027.058-.027,0,.027.058-.027,0,.027.059-.027,0,.027.059-.027,0,.027.059-.027,0,.027.059-.027,0,.027.059-.027,0,.027.059-.027,0,.027.059-.027,0,.027.058-.027,0,.027.059-.027,0,.027.059-.027,0,.027.059-.027,0,.027.059-.027,0,.027.059-14.8,2.29-2.884-6.215a39.641,39.641,0,0,1-9.878-1.526l-7.877,4.548-10.838-6.258.055-.031-.055-.032.055-.031-.055-.032.055-.031-.055-.032.055-.031-.055-.032.055-.032-.055-.031.055-.031-.055-.031.055-.032-.055-.031.055-.032-.055-.031.055-.032-.055-.032.055-.031-.055-.032.055-.031-.055-.032.055-.031-.055-.032.055-.031-.055-.032.055-.032-.055-.031.055-.032-.055-.031.055-.032-.055-.031.055-.032-.055-.031.055-.031-.055-.032.055-.031-.055-.031.055-.032-.055-.031.055-.031-.055-.032.055-.031-.055-.032.055-.031-.055-.031.055-.031-.055-.032.055-.032-.055-.031.055-.032-.055-.031.055-.032-.055-.031.055-.032-.055-.032.055-.031-.055-.032.055-.031-.055-.032.055-.031-.055-.032.055-.031-.055-.032.055-.031-.055-.032.055-.031-.055-.032.055-.032-.055-.031.055-.031-.055-.032.055-.031-.055-.031.055-.032-.055-.031.055-.032-.055-.031.055-.032-.055-.031.055-.031-.055-.032.055-.031-.055-.032.055-.031-.055-.032.055-.031-.055-.032.055-.031-.055-.031.055-.031-.055-.032.055-.032-.055-.031.055-.032-.055-.031.055-.031-.055-.031.055-.032-.055-.031.055-.032-.055-.031.055-.031-.055-.032.055-.031-.055-.032.055-.031-.055-.032.055-.031-.055-.032.055-.031-.055-.031.055-.032-.055-.031.055-.032-.055-.031.055-.031-.055-.031.055-.032-.055-.031.055-.032-.055-.031.055-.032-.055-.032.055-.031-.055-.032.055-.031-.055-.031.055-.031-.055-.031.055-.032-.055-.031.055-.032-.055-.031.055-.031-.055-.031.055-.032-.055-.031.055-.032-.055-.031.055-.032-.055-.031.055-.031-.055-.032.055-.031-.055-.032.055-.031-.055-.032.055-.031-.055-.032.055-.031-.055-.032.055-.032-.055-.031.055-.032-.055-.031.055-.032-.055-.031.055-.031-.055-.031.055-.032-.055-.032.055-.031-.055-.032.055-.031-.055-.031.055-.031-.055-.032.055-.031-.055-.032.055-.031-.055-.032.055-.031-.055-.032.055-.032-.055-.031.055-.032-.055-.031.055-.032-.055-.031.055-.032-.055-.031.055-.032-.055-.032.055-.031-.055-.032.055-.031-.055-.032.055-.031-.055-.031.055-.031-.055-.032.055-.032-.055-.031.055-.032-.055-.031.055-.032-.055-.031.055-.032-.055-.031.055-.032-.055-.032Z" transform="translate(-344.323 -644.372)" fill="#073669"/>
        <path id="Path_2147" data-name="Path 2147" d="M617.258,1151.644l-.027,0,10.764,1.665a10.051,10.051,0,0,0,2.643,5.7l-2.529,1.46c-.05-.266-.091-.532-.115-.8L617.231,1158l.027-.058-.027,0,.027-.059-.027,0,.027-.059-.027,0,.027-.059-.027,0,.027-.059-.027,0,.027-.059-.027,0,.027-.059-.027,0,.027-.059-.027,0,.027-.059-.027,0,.027-.059-.027,0,.027-.059-.027,0,.027-.059-.027,0,.027-.059-.027,0,.027-.058-.027,0,.027-.059-.027,0,.027-.059-.027,0,.027-.059-.027,0,.027-.059-.027,0,.027-.059-.027,0,.027-.059-.027,0,.027-.059-.027,0,.027-.059-.027,0,.027-.059-.027,0,.027-.059-.027,0,.027-.059-.027,0,.027-.059-.027,0,.027-.059-.027,0,.027-.059-.027,0,.027-.059-.027,0,.027-.059-.027,0,.027-.059-.027,0,.027-.059-.027,0,.027-.059-.027,0,.027-.058-.027,0,.027-.059-.027,0,.027-.059-.027,0,.027-.059-.027,0,.027-.059-.027,0,.027-.059-.027,0,.027-.059-.027,0,.027-.059-.027,0,.027-.059-.027,0,.027-.058-.027,0,.027-.058-.027,0,.027-.059-.027,0,.027-.059-.027,0,.027-.059-.027,0,.027-.059-.027,0,.027-.059-.027,0,.027-.059-.027,0,.027-.059-.027,0,.027-.059-.027,0,.027-.058-.027,0,.027-.058-.027,0,.027-.059-.027,0,.027-.059-.027,0,.027-.059-.027,0,.027-.059-.027,0,.027-.059-.027,0,.027-.059-.027,0,.027-.059-.027,0,.027-.059-.027,0,.027-.059-.027,0,.027-.058-.027,0,.027-.059-.027,0,.027-.058-.027,0,.027-.059-.027,0,.027-.059-.027,0,.027-.059-.027,0,.027-.059-.027,0,.027-.059-.027,0,.027-.059-.027,0,.027-.058-.027,0,.027-.058-.027,0,.027-.059-.027,0,.027-.058-.027,0,.027-.059-.027,0,.027-.059-.027,0,.027-.059-.027,0,.027-.059-.027,0,.027-.059-.027,0,.027-.059-.027,0,.027-.059-.027,0,.027-.058-.027,0,.027-.058-.027,0,.027-.059-.027,0,.027-.059-.027,0,.027-.059-.027,0,.027-.059-.027,0,.027-.059-.027,0,.027-.059-.027,0,.027-.059-.027,0,.027-.059-.027,0,.027-.058-.027,0,.027-.059-.027,0,.027-.059-.027,0,.027-.059-.027,0,.027-.059-.027,0,.027-.059-.027,0,.027-.059-.027,0Z" transform="translate(-337.645 -629.982)" fill="#073669"/>
        <path id="Path_2148" data-name="Path 2148" d="M659.766,1120.858l-.422-.911.027,0-.027-.059.027,0-.027-.059.027,0-.027-.059.027,0-.027-.059.027,0-.027-.058.027,0-.027-.059.027,0-.027-.059.027,0-.027-.059.027,0-.027-.059.027,0-.027-.059.027,0-.027-.059.027,0-.027-.059.027,0-.027-.059.027,0-.027-.058.027,0-.027-.058.027,0-.027-.059.027,0-.027-.059.027,0-.027-.059.027,0-.027-.059.027,0-.027-.059.027,0-.027-.059.027,0-.027-.059.027,0-.027-.059.027,0-.027-.059.027,0-.027-.058.027,0-.027-.059.027,0-.027-.059.027,0-.027-.059.027,0-.027-.059.027,0-.027-.059.027,0-.027-.059.027,0-.027-.059.027,0-.027-.059.027,0-.027-.058.027,0-.027-.058.027,0-.027-.059.027,0-.027-.059.027,0-.027-.059.027,0-.027-.059.027,0-.027-.059.027,0-.027-.059.027,0-.027-.059.027,0-.027-.059.027,0-.027-.059.027,0-.027-.058.027,0-.027-.059.027,0-.027-.059.027,0-.027-.059.027,0-.027-.059.027,0-.027-.059.027,0-.027-.059.027,0-.027-.059.027,0-.027-.059.027,0-.027-.059.027,0-.027-.058.027,0-.027-.058.027,0-.027-.059.027,0-.027-.059.027,0-.027-.059.027,0-.027-.059.027,0-.027-.059.027,0-.027-.059.027,0-.027-.059.027,0-.027-.059.027,0-.027-.058.027,0-.027-.059.027,0-.027-.058.027,0-.027-.059.027,0-.027-.059.027,0-.027-.059.027,0-.027-.059.027,0-.027-.059.027,0-.027-.059.027,0-.027-.059.027,0-.027-.059.027,0-.027-.059.027,0-.027-.058.027,0-.027-.059.027,0-.027-.059.027,0-.027-.059.027,0-.027-.059.027,0-.027-.059.027,0-.027-.059.027,0-.027-.059.027,0-.027-.059.027,0-.027-.058.027,0-.027-.058.027,0-.027-.059.027,0-.027-.059.027,0-.027-.059.027,0-.027-.059.027,0-.027-.059.027,0-.027-.059.027,0-.027-.059.027,0-.027-.059.027,0-.027-.059.027,0-.027-.059.027,0-.027-.059.027,0-.027-.059.027,0-.027-.059.027,0,2.856,6.153c-.85.32-1.67.677-2.461,1.063h0" transform="translate(-360.682 -609.196)" fill="#073669"/>
        <path id="Path_2149" data-name="Path 2149" d="M746.655,1138.771a10.4,10.4,0,0,0-2.529-4.9l7.877-4.548-.054.031.054.032-.054.031.054.032-.054.031.054.032-.054.031.054.032-.054.032.054.031-.054.032.054.031-.054.032.054.031-.054.032.054.031-.054.032.054.031-.054.032.054.031-.054.031.054.032-.054.031.054.032-.054.031.054.032-.054.031.054.031-.054.031.054.032-.054.032.054.031-.054.032.054.031-.054.032.054.031-.054.032.054.032-.054.031.054.031-.054.031.054.032-.054.031.054.032-.054.031.054.032-.054.031.054.032-.054.031.054.032-.054.032.054.031-.054.032.054.031-.054.032.054.031-.054.032.054.031-.054.031.054.032-.054.031.054.032-.054.031.054.032-.054.031.054.031-.054.031.054.032-.054.032.054.031-.054.032.054.031-.054.031.054.031-.054.032.054.031-.054.032.054.032-.054.031.054.032-.054.031.054.032-.054.031.054.032-.054.031.054.032-.054.031.054.032-.054.031.054.032-.054.032.054.031-.054.032.054.031-.054.032.054.031-.054.032.054.032-.054.031.054.032-.054.031.054.032-.054.031.054.031-.054.031.054.032-.054.031.054.032-.054.031.054.032-.054.031.054.031-.054.032.054.031-.054.032.054.031-.054.032.054.031-.054.032.054.032-.054.031.054.032-.054.031.054.032-.054.031.054.032-.054.031.054.032-.054.031.054.032-.054.032.054.031-.054.031.054.032-.054.032.054.031-.054.032.054.031-.054.032.054.031-.054.031.054.031-.054.031.054.032-.054.031.054.032-.054.031.054.032-.054.031.054.032-.054.031.054.032-.054.032.054.031-.054.032.054.031-.054.032.054.031-.054.031.054.032-.054.031.054.031-.054.032.054.031-.054.032.054.032-.054.031.054.031-.054.031.054.031-.054.031.054.032-.054.031.054.032-.054.032.054.031-.054.032.054.031-.054.032.054.031-.054.032.054.031-.054.032.054.031-.054.032.054.031-.054.031.054.032-.054.031.054.031-.054.032.054.031-.054.031.054.032-.054.032.054.031-.054.031.054.031-.054.032.054.031-.054.032.054.031Z" transform="translate(-407.061 -617.772)" fill="#073669"/>
        <g id="Group_2242" data-name="Group 2242" transform="translate(363.339 91.293)" opacity="0.47">
          <g id="Group_2241" data-name="Group 2241">
            <g id="Group_2240" data-name="Group 2240" clip-path="url(#clip-path-7)">
              <path id="Path_2150" data-name="Path 2150" d="M815.311,433.641c-17.876-23.674-17.533-59.411.794-82.738,12.444-15.838,31.694-25.87,41.88-43.246,10.45-17.827,9.459-40.09,16.779-59.414,10.79-28.48,41.165-48.261,71.576-46.612-18.089,11.952-22.251,39.112-17.379,60.239s14.814,41.554,14.022,63.221c-.765,20.961-11.746,40.505-26.243,55.663s-32.4,26.55-50.109,37.788c-8.177,5.189-16.532,10.456-25.92,12.836s-19.564,9.992-25.4,2.263" transform="translate(-802.129 -201.537)" fill="#c7dafb"/>
            </g>
          </g>
        </g>
        <g id="Group_2245" data-name="Group 2245" transform="translate(400.495 149.006)" opacity="0.1">
          <g id="Group_2244" data-name="Group 2244">
            <g id="Group_2243" data-name="Group 2243" clip-path="url(#clip-path-8)">
              <path id="Path_2151" data-name="Path 2151" d="M887.623,510.586a361.851,361.851,0,0,0,33.191-54.353,1.917,1.917,0,0,0,.3-.615q4.481-9.081,8.454-18.39a119.063,119.063,0,0,0,36.338-25.918,1.948,1.948,0,0,0-.067-2.715,1.92,1.92,0,0,0-2.715.067,115.3,115.3,0,0,1-31.34,23.241,362.052,362.052,0,0,0,12.855-37.284,1.913,1.913,0,0,0,.239-.18,233.664,233.664,0,0,0,27.158-29.771,1.921,1.921,0,1,0-3.051-2.334,229.929,229.929,0,0,1-22.4,25.193,361.78,361.78,0,0,0,10.174-56.469,1.921,1.921,0,1,0-3.823-.378q-1.749,17.674-5.232,35.019l-11.623-29.175a1.921,1.921,0,0,0-3.568,1.422l13.539,33.983a1.89,1.89,0,0,0,.256.44A358.371,358.371,0,0,1,936,409.519a261.892,261.892,0,0,1-23.091-35.311,1.921,1.921,0,1,0-3.375,1.835,265.7,265.7,0,0,0,24.976,37.828q-3.691,10.531-8.031,20.819a1.925,1.925,0,0,0-.368.873q-3.412,8.026-7.214,15.883A178.169,178.169,0,0,1,899.3,419.2a1.921,1.921,0,1,0-3.477,1.633A182.027,182.027,0,0,0,917,455.284,358.038,358.038,0,0,1,884.535,508.3a1.921,1.921,0,0,0,.182,2.5,1.844,1.844,0,0,0,.221.19,1.92,1.92,0,0,0,2.686-.4" transform="translate(-884.158 -328.948)"/>
            </g>
          </g>
        </g>
        <g id="Group_2248" data-name="Group 2248" transform="translate(386.507 206.641)" opacity="0.1">
          <g id="Group_2247" data-name="Group 2247">
            <g id="Group_2246" data-name="Group 2246" clip-path="url(#clip-path-9)">
              <path id="Path_2152" data-name="Path 2152" d="M970.962,464.393a71.277,71.277,0,0,0-.188-8.207,127.153,127.153,0,0,0-73.423,31c-27.081,23.674-43.335,53.687-44.076,88.754,4.8-1.04,10.229-3.947,15.415-5.262,9.387-2.38,17.742-7.647,25.92-12.836,17.71-11.238,35.611-22.63,50.109-37.788s25.478-34.7,26.243-55.663" transform="translate(-853.275 -456.188)"/>
            </g>
          </g>
        </g>
        <path id="Path_2153" data-name="Path 2153" d="M857.186,604.241a164,164,0,0,0,163.692-110.517,127.065,127.065,0,0,0-109.783,17.825c-31.91,22.478-51.923,53.709-53.909,92.691" transform="translate(-468.908 -267.136)" fill="#c7daf2"/>
        <g id="Group_2251" data-name="Group 2251" transform="translate(371.328 225.974)" opacity="0.1">
          <g id="Group_2250" data-name="Group 2250">
            <g id="Group_2249" data-name="Group 2249" clip-path="url(#clip-path-10)">
              <path id="Path_2154" data-name="Path 2154" d="M820.192,624.669a376.077,376.077,0,0,1,45.253-48.314,1.968,1.968,0,0,1,.532-.476q7.854-7.006,16.08-13.566a123.747,123.747,0,0,1,15.894-43.585,2.025,2.025,0,0,1,2.739-.686,2,2,0,0,1,.686,2.739,119.828,119.828,0,0,0-14.6,37.837,376.5,376.5,0,0,1,33.789-23.211,1.994,1.994,0,0,1,.114-.289,242.855,242.855,0,0,1,22.3-35.458,2,2,0,1,1,3.183,2.41,239.074,239.074,0,0,0-19.029,29.424,376.1,376.1,0,0,1,53.751-25.841,2,2,0,0,1,1.438,3.725q-17.222,6.65-33.633,14.947l32.449,3.558a2,2,0,0,1-.435,3.969l-37.8-4.146a1.965,1.965,0,0,1-.512-.135A372.471,372.471,0,0,0,908.036,548.2a272.216,272.216,0,0,0,41.774,13.346,2,2,0,1,1-.9,3.889A276.121,276.121,0,0,1,904.089,550.9q-9.527,6.617-18.631,13.815a1.992,1.992,0,0,1-.772.61q-7.094,5.643-13.912,11.629A185.225,185.225,0,0,0,908.5,587.642a2,2,0,1,1-.673,3.935,189.2,189.2,0,0,1-40.377-11.662,372.125,372.125,0,0,0-44.118,47.216,2,2,0,0,1-2.551.509,1.944,1.944,0,0,1-.252-.169,2,2,0,0,1-.341-2.8" transform="translate(-819.767 -498.869)"/>
            </g>
          </g>
        </g>
        <g id="Group_2254" data-name="Group 2254" transform="translate(45.812 233.391)" opacity="0.47">
          <g id="Group_2253" data-name="Group 2253">
            <g id="Group_2252" data-name="Group 2252" clip-path="url(#clip-path-11)">
              <path id="Path_2155" data-name="Path 2155" d="M236.276,754.628c18.437-24.416,18.082-61.274-.819-85.332-12.833-16.334-32.688-26.682-43.193-44.6-10.777-18.385-9.755-41.347-17.305-61.277-11.128-29.374-42.456-49.775-73.82-48.074,18.656,12.327,22.948,40.339,17.924,62.128s-15.279,42.858-14.463,65.2c.79,21.618,12.114,41.775,27.066,57.409s33.415,27.383,51.681,38.973c8.433,5.352,17.051,10.784,26.732,13.238s20.178,10.305,26.2,2.334" transform="translate(-101.138 -515.244)" fill="#c7dafb"/>
            </g>
          </g>
        </g>
        <g id="Group_2257" data-name="Group 2257" transform="translate(65.178 292.915)" opacity="0.1">
          <g id="Group_2256" data-name="Group 2256">
            <g id="Group_2255" data-name="Group 2255" clip-path="url(#clip-path-12)">
              <path id="Path_2156" data-name="Path 2156" d="M231.365,833.987a373.171,373.171,0,0,1-34.231-56.057,1.964,1.964,0,0,1-.315-.635q-4.622-9.366-8.719-18.967a122.785,122.785,0,0,1-37.477-26.73,2.01,2.01,0,0,1,.069-2.8,1.98,1.98,0,0,1,2.8.069,118.917,118.917,0,0,0,32.322,23.97,373.561,373.561,0,0,1-13.258-38.453,1.929,1.929,0,0,1-.247-.186,240.957,240.957,0,0,1-28.009-30.7,1.981,1.981,0,1,1,3.147-2.407,237.112,237.112,0,0,0,23.1,25.982,373.1,373.1,0,0,1-10.493-58.239,1.981,1.981,0,0,1,3.942-.39q1.8,18.228,5.4,36.117l11.988-30.089a1.981,1.981,0,1,1,3.68,1.466L171.1,690.982a1.946,1.946,0,0,1-.265.454,369.643,369.643,0,0,0,10.637,38.315,270.051,270.051,0,0,0,23.815-36.418,1.981,1.981,0,0,1,3.481,1.892,274.014,274.014,0,0,1-25.759,39.015q3.808,10.862,8.283,21.472a1.978,1.978,0,0,1,.379.9q3.52,8.277,7.44,16.381a183.807,183.807,0,0,0,20.2-33.255,1.981,1.981,0,1,1,3.586,1.685,187.756,187.756,0,0,1-21.834,35.529,369.2,369.2,0,0,0,33.482,54.681,1.982,1.982,0,0,1-.188,2.574,1.984,1.984,0,0,1-3-.219" transform="translate(-143.892 -646.652)"/>
            </g>
          </g>
        </g>
        <g id="Group_2260" data-name="Group 2260" transform="translate(49.228 352.357)" opacity="0.1">
          <g id="Group_2259" data-name="Group 2259">
            <g id="Group_2258" data-name="Group 2258" clip-path="url(#clip-path-13)">
              <path id="Path_2157" data-name="Path 2157" d="M108.725,786.345a73.564,73.564,0,0,1,.194-8.465,131.139,131.139,0,0,1,75.725,31.975c27.931,24.417,44.694,55.371,45.458,91.538-4.954-1.072-10.55-4.071-15.9-5.427-9.682-2.455-18.3-7.887-26.732-13.238-18.265-11.59-36.728-23.34-51.68-38.973s-26.277-35.79-27.066-57.409" transform="translate(-108.679 -777.88)"/>
            </g>
          </g>
        </g>
        <path id="Path_2158" data-name="Path 2158" d="M168.825,930.578A169.15,169.15,0,0,1,0,816.6,131.049,131.049,0,0,1,113.226,834.98c32.91,23.183,53.552,55.394,55.6,95.6" transform="translate(0 -443.664)" fill="#c7daf2"/>
        <g id="Group_2263" data-name="Group 2263" transform="translate(17.335 372.297)" opacity="0.1">
          <g id="Group_2262" data-name="Group 2262">
            <g id="Group_2261" data-name="Group 2261" clip-path="url(#clip-path-14)">
              <path id="Path_2159" data-name="Path 2159" d="M206.8,951.647a387.875,387.875,0,0,0-46.672-49.829,2.038,2.038,0,0,0-.549-.491Q151.48,894.1,143,887.337A127.635,127.635,0,0,0,126.6,842.384a2.088,2.088,0,0,0-2.825-.707,2.059,2.059,0,0,0-.707,2.824,123.6,123.6,0,0,1,15.056,39.024,388.292,388.292,0,0,0-34.849-23.938,2.05,2.05,0,0,0-.118-.3,250.49,250.49,0,0,0-23-36.569,2.059,2.059,0,1,0-3.283,2.485,246.533,246.533,0,0,1,19.626,30.347A387.9,387.9,0,0,0,41.071,828.9a2.059,2.059,0,1,0-1.483,3.841Q57.35,839.6,74.275,848.156l-33.466,3.67a2.059,2.059,0,0,0,.449,4.093l38.982-4.276a2.053,2.053,0,0,0,.528-.139A384.021,384.021,0,0,1,116.2,872.78,280.7,280.7,0,0,1,73.12,886.545a2.059,2.059,0,1,0,.931,4.011,284.756,284.756,0,0,0,46.224-14.993q9.826,6.824,19.215,14.248a2.059,2.059,0,0,0,.8.63q7.317,5.819,14.349,11.993a190.984,190.984,0,0,1-38.914,11.024,2.059,2.059,0,1,0,.694,4.059,195.122,195.122,0,0,0,41.643-12.027,383.8,383.8,0,0,1,45.5,48.7,2.059,2.059,0,0,0,2.63.525,2.092,2.092,0,0,0,.26-.173,2.06,2.06,0,0,0,.352-2.891" transform="translate(-38.27 -821.902)"/>
            </g>
          </g>
        </g>
        <path id="Path_2160" data-name="Path 2160" d="M534.057,63.181,226.841,240.552C215.983,246.821,207.1,262.141,207.1,274.6l1.478,335.147c0,12.459,8.883,17.522,19.74,11.253L535.535,443.628c10.857-6.269,19.739-21.588,19.739-34.046L553.8,74.435c0-12.459-8.881-17.523-19.739-11.254" transform="translate(-113.29 -33.088)" fill="#c7daf2" fill-rule="evenodd"/>
        <path id="Path_2161" data-name="Path 2161" d="M535.474,69.466,235.633,242.579c-10.6,6.119-19.267,21.07-19.267,33.228l.5,331.578c0,12.159,8.668,17.1,19.267,10.983L535.973,445.256c10.6-6.12,19.266-21.072,19.266-33.23l-.5-331.578c0-12.159-8.667-17.1-19.267-10.981" transform="translate(-118.359 -36.561)" fill="#fff" fill-rule="evenodd"/>
        <path id="Path_2162" data-name="Path 2162" d="M535.475,69.464,235.633,242.578c-10.6,6.119-19.267,21.07-19.267,33.228v55.55L554.74,136V80.446c0-12.159-8.667-17.1-19.265-10.982" transform="translate(-118.359 -36.56)" fill="#073669" fill-rule="evenodd"/>
        <path id="Path_2163" data-name="Path 2163" d="M375.6,469.3a12.975,12.975,0,0,0,5.876-10.132c0-3.713-2.639-5.217-5.876-3.348a12.977,12.977,0,0,0-5.875,10.133c0,3.713,2.639,5.216,5.875,3.347" transform="translate(-202.249 -248.905)" fill="#f0f4ff" fill-rule="evenodd"/>
        <path id="Path_2164" data-name="Path 2164" d="M323.719,499.249a12.975,12.975,0,0,0,5.875-10.131c0-3.713-2.64-5.217-5.875-3.349a12.978,12.978,0,0,0-5.875,10.133c0,3.713,2.639,5.215,5.875,3.347" transform="translate(-173.871 -265.29)" fill="#f0f4ff" fill-rule="evenodd"/>
        <path id="Path_2165" data-name="Path 2165" d="M271.842,529.2a12.977,12.977,0,0,0,5.875-10.131c0-3.712-2.641-5.216-5.875-3.349a12.979,12.979,0,0,0-5.876,10.134c0,3.712,2.64,5.215,5.876,3.346" transform="translate(-145.492 -281.674)" fill="#f0f4ff" fill-rule="evenodd"/>
        <path id="Path_2166" data-name="Path 2166" d="M349.82,837.622l21.187,13,49.523-53.043,19.752-71.643a7.181,7.181,0,0,0-3.166-8.029l-13-7.979a7.131,7.131,0,0,0-7.244-.127L355.808,744.38a11.806,11.806,0,0,0-5.988,10.273Z" transform="translate(-191.363 -387.776)" fill="#d2e6f9"/>
      </g>
    </g>
    <g id="Group_2267" data-name="Group 2267" transform="translate(179.644 335.439)">
      <g id="Group_2266" data-name="Group 2266" clip-path="url(#clip-path-15)">
        <rect id="Rectangle_2292" data-name="Rectangle 2292" width="70.709" height="127.407" transform="translate(0 0)" fill="#38a32c"/>
      </g>
    </g>
    <g id="Group_2269" data-name="Group 2269" transform="translate(0 -0.002)">
      <g id="Group_2268" data-name="Group 2268" clip-path="url(#clip-path-2)">
        <path id="Path_2168" data-name="Path 2168" d="M455.873,850.619c0-6.229,3.974-13.53,8.876-16.306s8.877.023,8.877,6.253a21.273,21.273,0,0,1-4.91,12.82l2.848,14.3-13.63,7.719,2.848-17.527c-2.9-.213-4.91-2.852-4.91-7.26" transform="translate(-249.377 -455.808)" fill="#fff"/>
      </g>
    </g>
    <g id="Group_2271" data-name="Group 2271" transform="translate(180.869 285.058)">
      <g id="Group_2270" data-name="Group 2270" clip-path="url(#clip-path-17)">
        <rect id="Rectangle_2294" data-name="Rectangle 2294" width="45.899" height="74.51" transform="translate(0 0)" fill="#38a32c"/>
      </g>
    </g>
    <g id="Group_2273" data-name="Group 2273" transform="translate(0 -0.002)">
      <g id="Group_2272" data-name="Group 2272" clip-path="url(#clip-path-2)">
        <path id="Path_2170" data-name="Path 2170" d="M720.463,547.05c4.319-5.723,7.175-12.514,7.175-18.076,0-8.822-7.177-11.254-16-5.421s-16,17.753-16,26.575c0,5.562,2.856,8.576,7.175,8.589-9.773,10.067-16.774,24.077-16.774,35.087l4.266-2.82c0-11.763,9.569-27.657,21.332-35.434s21.331-4.534,21.331,7.228l4.266-2.821c0-11.01-7-15.762-16.774-12.908m-8.823,4.233c-6.47,4.277-11.732,2.494-11.732-3.975S705.17,532.1,711.64,527.82s11.732-2.494,11.732,3.976-5.263,15.212-11.732,19.488" transform="translate(-375.287 -284.662)" fill="#11345e"/>
        <path id="Path_2171" data-name="Path 2171" d="M745.242,585.094l-148.85,85.939V650.118l148.85-85.939Z" transform="translate(-326.245 -308.622)" fill="#d2e6f9"/>
        <path id="Path_2172" data-name="Path 2172" d="M745.242,660.107l-148.85,85.939V725.131l148.85-85.939Z" transform="translate(-326.245 -349.657)" fill="#d2e6f9"/>
        <path id="Path_2173" data-name="Path 2173" d="M709.192,781.2a4.469,4.469,0,1,1-4.307-4.625,4.47,4.47,0,0,1,4.307,4.625" transform="translate(-383.063 -424.81)" fill="#11345e"/>
        <path id="Path_2174" data-name="Path 2174" d="M746.168,759.489a4.469,4.469,0,1,1-4.307-4.626,4.469,4.469,0,0,1,4.307,4.626" transform="translate(-403.29 -412.931)" fill="#11345e"/>
        <path id="Path_2175" data-name="Path 2175" d="M788.614,737.773c-.088,2.467,2.37,4.395-.1,4.307a4.469,4.469,0,0,1,.319-8.933c2.467.088-.135,2.159-.223,4.626" transform="translate(-428.987 -401.052)" fill="#11345e"/>
        <path id="Path_2176" data-name="Path 2176" d="M820.118,716.058a4.469,4.469,0,1,1-4.307-4.626,4.47,4.47,0,0,1,4.307,4.626" transform="translate(-443.743 -389.173)" fill="#11345e"/>
        <path id="Path_2177" data-name="Path 2177" d="M857.093,694.342a4.469,4.469,0,1,1-4.307-4.626,4.469,4.469,0,0,1,4.307,4.626" transform="translate(-463.969 -377.294)" fill="#11345e"/>
      </g>
    </g>
    <g id="Group_2275" data-name="Group 2275" transform="translate(295.157 348.369)">
      <g id="Group_2274" data-name="Group 2274" clip-path="url(#clip-path-19)">
        <path id="Path_2230" data-name="Path 2230" d="M0,0H108.872V86.389H0Z" transform="translate(0 0)" fill="#2a6fca"/>
      </g>
    </g>
    <g id="Group_2277" data-name="Group 2277" transform="translate(0 -0.002)">
      <g id="Group_2276" data-name="Group 2276" clip-path="url(#clip-path-2)">
        <path id="Path_2179" data-name="Path 2179" d="M722.95,889.259V877.1l2.863-1.653v9.507l4.081-2.356v2.653Z" transform="translate(-395.477 -478.894)" fill="#fff"/>
        <path id="Path_2180" data-name="Path 2180" d="M751.469,863.737a10.962,10.962,0,0,1-1.312,5.424,10.01,10.01,0,0,1-3.842,3.815q-2.493,1.44-3.824.6t-1.33-3.907a10.872,10.872,0,0,1,1.323-5.4,10.045,10.045,0,0,1,3.846-3.822q2.53-1.46,3.835-.625t1.3,3.913m-7.292,4.21q0,3.526,2.138,2.293a3.847,3.847,0,0,0,1.613-1.788,7.238,7.238,0,0,0,.525-2.973,3.663,3.663,0,0,0-.533-2.384q-.533-.561-1.591.049-2.152,1.243-2.153,4.8" transform="translate(-405.439 -470.183)" fill="#fff"/>
        <path id="Path_2181" data-name="Path 2181" d="M771.925,850.3l4.574-2.641v6.554a20.822,20.822,0,0,1-4.1,3.1q-2.451,1.414-3.788.557t-1.338-3.878a10.5,10.5,0,0,1,1.464-5.429,11.1,11.1,0,0,1,4.1-4.007,10.447,10.447,0,0,1,1.888-.874,6.476,6.476,0,0,1,1.548-.344l-.906,3.1a5.225,5.225,0,0,0-2.516.8,4.909,4.909,0,0,0-1.939,2.056,6.611,6.611,0,0,0-.685,3.07,2.971,2.971,0,0,0,.62,2.242q.619.537,1.787-.137a8.161,8.161,0,0,0,1.174-.819V851.74l-1.891,1.092Z" transform="translate(-419.726 -461.327)" fill="#fff"/>
        <path id="Path_2182" data-name="Path 2182" d="M792.4,849.15V836.99l2.878-1.661v12.16Z" transform="translate(-433.47 -456.95)" fill="#fff"/>
        <path id="Path_2183" data-name="Path 2183" d="M813.9,831.708l-3.755,2.168-3.871-6.332-.065.038q.137,1.941.138,3.006v5.482l-2.537,1.464v-12.16l3.74-2.16,3.857,6.225.043-.024q-.1-1.781-.1-2.895v-5.5l2.552-1.474Z" transform="translate(-439.711 -448.317)" fill="#fff"/>
        <path id="Path_2184" data-name="Path 2184" d="M1041.474,104.732l-129.124,74.55c-4.564,2.635-8.3,9.075-8.3,14.311v106.6c0,5.236,3.734,7.365,8.3,4.73l129.124-74.55c4.563-2.635,8.3-9.074,8.3-14.311v-106.6c0-5.236-3.733-7.365-8.3-4.73" transform="translate(-494.546 -56.671)" fill="#d1d4eb" fill-rule="evenodd"/>
      </g>
    </g>
    <g id="Group_2279" data-name="Group 2279" transform="translate(413.288 51.018)">
      <g id="Group_2278" data-name="Group 2278" clip-path="url(#clip-path-21)">
        <path id="Path_2556" data-name="Path 2556" d="M0,0H139.253V194.907H0Z" transform="translate(0 0)" fill="#38a32c"/>
      </g>
    </g>
    <g id="Group_2281" data-name="Group 2281" transform="translate(0 -0.002)">
      <g id="Group_2280" data-name="Group 2280" clip-path="url(#clip-path-2)">
        <path id="Path_2186" data-name="Path 2186" d="M1046.128,252.77c2.522-3.342,4.19-7.307,4.19-10.556,0-5.152-4.191-6.572-9.343-3.166s-9.343,10.368-9.343,15.519c0,3.248,1.668,5.008,4.189,5.016-5.707,5.879-9.8,14.06-9.8,20.49l2.491-1.647c0-6.869,5.588-16.151,12.457-20.692s12.456-2.648,12.456,4.221l2.491-1.647c0-6.429-4.088-9.2-9.8-7.538m-5.152,2.472c-3.778,2.5-6.851,1.456-6.851-2.321s3.073-8.883,6.851-11.381,6.851-1.456,6.851,2.321-3.073,8.883-6.851,11.381" transform="translate(-561.269 -129.751)" fill="#fff"/>
        <path id="Path_2187" data-name="Path 2187" d="M1055.257,267.689,943.149,332.414V316.662l112.107-64.725Z" transform="translate(-515.933 -137.816)" fill="#fff"/>
        <path id="Path_2188" data-name="Path 2188" d="M1055.257,322.186,943.149,386.911V371.159l112.107-64.725Z" transform="translate(-515.933 -167.627)" fill="#fff"/>
        <path id="Path_2189" data-name="Path 2189" d="M1028.106,413.391a3.366,3.366,0,1,1-3.243-3.484,3.366,3.366,0,0,1,3.243,3.484" transform="translate(-558.725 -224.229)" fill="#11345e"/>
        <path id="Path_2190" data-name="Path 2190" d="M1055.954,397.036a3.366,3.366,0,1,1-3.244-3.484,3.366,3.366,0,0,1,3.244,3.484" transform="translate(-573.959 -215.283)" fill="#11345e"/>
        <path id="Path_2191" data-name="Path 2191" d="M1083.8,380.681a3.366,3.366,0,1,1-3.244-3.484,3.366,3.366,0,0,1,3.244,3.484" transform="translate(-589.193 -206.336)" fill="#11345e"/>
        <path id="Path_2192" data-name="Path 2192" d="M1111.65,364.325a3.366,3.366,0,1,1-3.244-3.484,3.366,3.366,0,0,1,3.244,3.484" transform="translate(-604.427 -197.389)" fill="#11345e"/>
        <path id="Path_2193" data-name="Path 2193" d="M1139.5,347.97a3.366,3.366,0,1,1-3.244-3.484,3.366,3.366,0,0,1,3.244,3.484" transform="translate(-619.66 -188.442)" fill="#11345e"/>
        <path id="Path_2194" data-name="Path 2194" d="M304.421,1406.2c.914,10.888-14.826,23.818-35.156,28.881s-37.552.339-38.466-10.549,14.826-23.818,35.156-28.881,37.552-.339,38.466,10.549" transform="translate(-126.234 -762.354)" fill="#c8e6eb"/>
        <path id="Path_2195" data-name="Path 2195" d="M1044.352,1284.875c1.15,13.691-18.642,29.95-44.206,36.315s-47.219.427-48.368-13.264,18.643-29.95,44.207-36.315,47.219-.427,48.368,13.264" transform="translate(-520.627 -694.213)" fill="#c8e6eb"/>
        <path id="Path_2196" data-name="Path 2196" d="M350.861,945.52c11.4,4.681,11.9,31.9,14.431,35.37,3.978,5.446,20.1,26.138,22.062,29.468s-5.485,8.685-7.835,6.3c-1.87-1.9-17.8-17.89-24.228-24.349a9.732,9.732,0,0,1-2.83-6.487Z" transform="translate(-191.932 -517.228)" fill="#9ebbdb"/>
        <path id="Path_2197" data-name="Path 2197" d="M255.5,1265.456s1.539-58.276,1.539-64.481-6.528-47.812-.551-66.877l45.353,4.211s.888,19.241.889,20.687c0,2.256-6.868,62.243-5.993,91.393l-17.757,1.679s-.327-38.643,3.123-53.7c.172-9.068-.529-29.471-.529-29.471s-5.988,27.323-6.624,33.687-4.6,64.014-4.6,64.014a145.17,145.17,0,0,0-14.855-1.141" transform="translate(-138.931 -620.386)" fill="#073669"/>
        <path id="Path_2198" data-name="Path 2198" d="M231.942,986.436s-2.088-7.445,3.546-19.324c3.228-6.806,12.4-12.509,23.43-17.873,21.036-10.229,29.25-7.63,32.036,2.3,1.3,4.627,2.477,22.185,1.117,31.892-2.225,15.893-3.146,42.207-1.777,52.148.273,1.978-5.686,6.945-18.063,9.651-8.972,1.961-29.406,1.271-31.411-7.036l1.175-48.3Z" transform="translate(-126.673 -515.696)" fill="#c7daf2"/>
        <path id="Path_2199" data-name="Path 2199" d="M310.867,956.4c0,3.383-4.309,6.125-9.624,6.125s-9.624-2.742-9.624-6.125,4.309-6.126,9.624-6.126,9.624,2.742,9.624,6.126" transform="translate(-159.525 -519.83)" fill="#fcae6e"/>
        <path id="Path_2200" data-name="Path 2200" d="M311.617,947.376H295.637a.743.743,0,0,1-.742-.743V928.967H312V946.99a.386.386,0,0,1-.386.386" transform="translate(-161.317 -508.173)" fill="#fcae6e"/>
        <path id="Path_2201" data-name="Path 2201" d="M299.02,928.967a17.965,17.965,0,0,0,12.04,17.322,2.421,2.421,0,0,0,3.2-2.292v-15.03Z" transform="translate(-163.573 -508.173)" fill="#f29955"/>
        <path id="Path_2202" data-name="Path 2202" d="M318.339,891.023c-.752,11.341-2.9,20.2-8.713,20.2-8.63,0-14.732-9.07-14.732-20.436s.5-17.566,9.126-17.566,15.057,6.669,14.318,17.806" transform="translate(-161.317 -477.676)" fill="#fcae6e"/>
        <path id="Path_2203" data-name="Path 2203" d="M288.756,905.925a65.381,65.381,0,0,1,1.271-13.155c.836-4.307,1.474-5.827,5.169-6.653,1.092-.244,9.583,2.421,11.666,2.168,2.682-.325,4.772-5.21,5.325-1.482,0,0,1.517-2.566-.365-8.953-1.56-5.292-24.964-12.77-27.871,7.5-1.475,10.29,3.321,15.163,4.805,20.577" transform="translate(-155.178 -477.018)" fill="#111b33"/>
        <path id="Path_2204" data-name="Path 2204" d="M295.708,916.564c0,2.784.128,5.559-2.045,5.559s-4.912-3.5-4.912-6.284.848-4.317,3.022-4.317,3.935,2.258,3.935,5.042" transform="translate(-157.957 -498.63)" fill="#fcae6e"/>
        <path id="Path_2205" data-name="Path 2205" d="M344.5,1124.12l-.216,0c-5.274-.146-6.161-6.671-.987-7.7a31.294,31.294,0,0,0,6.129-1.439l2.749-4.212c.6-.914,3.695-3.921,4.592-3.3.727.5-1.492,3.95-1.8,4.78,0,0-2.332,3.927.583,2.52,2.52-1.216,8.84-11.716,8.492-3.929-.388,8.724-12.3,13.358-19.542,13.288" transform="translate(-185.906 -605.769)" fill="#fcae6e"/>
        <path id="Path_2206" data-name="Path 2206" d="M231.892,1027.975s2.163,35.49,2.881,38.93,12.159,21.373,50.343,15.091c0,0,1.31-6.843.665-11.38-7.488-.453-30.527-.406-35.687-8.359-1.753-2.7-2.316-19.051-2.316-19.051a13.769,13.769,0,0,0-15.886-15.231" transform="translate(-126.852 -562.233)" fill="#9ebbdb"/>
        <path id="Path_2207" data-name="Path 2207" d="M309.509,1391.667s.139,6.937,0,8.741,16.523,12.183,24.015,13.432c4.121.687,6.685-.871,8.159-2.574a3.557,3.557,0,0,0-.55-5.06,93.8,93.8,0,0,1-15.121-15.323Z" transform="translate(-169.311 -760.856)" fill="#111b33"/>
        <path id="Path_2208" data-name="Path 2208" d="M258.18,1423.493s-1.691,8.7-1.373,10.777,1.651,15.4,13.029,14.846,3.885-14.292,3.191-16.1-2.22-9.528-2.22-9.528Z" transform="translate(-140.46 -778.694)" fill="#111b33"/>
        <path id="Path_2209" data-name="Path 2209" d="M332.3,944.835a2.656,2.656,0,0,1,.77-2.72c.669-.65,1.948-1.01,2.365-.176s-.608,2.671-1.181,3.047-1.858.36-1.955-.152" transform="translate(-181.726 -515.003)" fill="#fcae6e"/>
      </g>
    </g>
    <g id="Group_2283" data-name="Group 2283" transform="translate(171.615 487.118)">
      <g id="Group_2282" data-name="Group 2282" clip-path="url(#clip-path-23)">
        <rect id="Rectangle_2300" data-name="Rectangle 2300" width="26.104" height="18.621" fill="url(#linear-gradient-3)"/>
      </g>
    </g>
    <g id="Group_2285" data-name="Group 2285" transform="translate(0 -0.002)">
      <g id="Group_2284" data-name="Group 2284" clip-path="url(#clip-path-2)">
        <path id="Path_2211" data-name="Path 2211" d="M375.788,1091.954l-2.549-2.8,15.6-17.528,2.549,2.8Z" transform="translate(-204.173 -586.213)" fill="#1b2851"/>
        <path id="Path_2212" data-name="Path 2212" d="M420.732,1072.012l-2.549-2.8-10.5,1.094,2.549,2.8Z" transform="translate(-223.014 -584.892)" fill="#1b2851"/>
        <path id="Path_2213" data-name="Path 2213" d="M410.7,1080.335c-1.413,1.588-3.1,1.887-6.023,2.256-3.054.386-6.05.357-6.547,1.677-.563,1.5,2.463,1.483,2.463,1.483s4.764-.016,4.531.418-4.465.989-5.925,1.057c-2.643.122-3.761.043-3.881,1.3-.179,1.877,7.067.584,6.939,1.3s-5.816,1.333-6.284,1.654-.05.967,2.1,1.324c2.078.346,6.973.192,9.2-1.235,4.853-3.109,7.635-8.612,6.7-11.228l-.938-2.617Z" transform="translate(-216.252 -589.544)" fill="#fcae6e"/>
        <path id="Path_2214" data-name="Path 2214" d="M302.65,918.607h0c-1.271-4.335-3.548-11.291,0-14.774H299.02v11.144a3.63,3.63,0,0,0,3.631,3.63" transform="translate(-163.573 -494.424)" fill="#111b33"/>
        <path id="Path_2215" data-name="Path 2215" d="M860.368,801.311s-.471-4.349-.838-5.778-1.167-7.071-2.662-8.927-1.5,2.719-1.914,4-2.4,2-3.9.126-3-6.849-4.361-9.262-7.762,5.922-6.959,10.4a17.632,17.632,0,0,0,5.97,10.807c3.229,2.833,7.146,3.549,8.387,4.969Z" transform="translate(-459.324 -427.254)" fill="#fcae6e"/>
        <path id="Path_2216" data-name="Path 2216" d="M1045.063,1304.653s.593,1.769-7.035,2.185-15.737.416-16.778,5.408,5.99,10.843,14.311,11.986c7.165.983,19.539.242,26.527-1.146,1.166-.233,2.17-.774,2.327-1.956a26.139,26.139,0,0,0-.995-11.541c-2.231-6.729-18.358-4.937-18.358-4.937" transform="translate(-558.6 -713.567)" fill="#111b33"/>
        <path id="Path_2217" data-name="Path 2217" d="M999,1317.369s.593,1.766-7.035,2.182-15.739.416-16.778,5.408,4.887,8.943,13.205,10.087c7.169.986,21.511,1.662,27.211,1.9a2.223,2.223,0,0,0,2.331-1.955,57.711,57.711,0,0,0,.407-11.483c-.518-7.072-19.341-6.136-19.341-6.136" transform="translate(-533.396 -720.619)" fill="#111b33"/>
        <path id="Path_2218" data-name="Path 2218" d="M1081.179,1044.553s.827,61.32,1.379,68.779S1084.77,1166,1084.77,1166s-12.813,6.453-22.757,2.031l-5.694-116.57Z" transform="translate(-577.84 -571.402)" fill="#033f75"/>
        <path id="Path_2219" data-name="Path 2219" d="M1038.316,1050.089V1111.5c.553,17.954,1.565,65.052,1.565,65.052a33.087,33.087,0,0,1-23.938-6.31c.829-8.009,0-53.31,0-53.31-3-23.5-4.795-61.27-5.105-68.215-.035-.726-.05-1.114-.05-1.114Z" transform="translate(-552.933 -573.071)" fill="#073669"/>
        <path id="Path_2220" data-name="Path 2220" d="M1120.042,853.381s9.391,29.233,7.363,44.7a82.572,82.572,0,0,1-16.2,10.5Z" transform="translate(-607.864 -466.825)" fill="#9ebbdb"/>
        <path id="Path_2221" data-name="Path 2221" d="M1017.982,769.075c.029,11.25,7.451,20.351,16.578,20.328s16.5-9.165,16.475-20.415-7.454-20.35-16.58-20.327-16.5,9.164-16.473,20.415" transform="translate(-556.869 -409.539)" fill="#fcae6e"/>
        <path id="Path_2222" data-name="Path 2222" d="M1032.869,828.473s-11.925-.815-21.284,5.727a7.143,7.143,0,0,1-2.563,3.215c-1.871,1.248-15.716,6.512-15.716,6.512s8.655,58.374,3.96,84.891c0,0,20.164,15.744,51.652,0,0,0,4.6-72.323,6.63-89.081,0,0-5.248-6.491-22.678-11.265" transform="translate(-543.37 -453.182)" fill="#c7daf2"/>
        <path id="Path_2223" data-name="Path 2223" d="M921.76,838.231l-23.519,5.407-25.122-25.611s-8.818,2.723-10.6,10.27l29.966,34.1,36.849-3.216s8.815-18.368-7.573-20.947" transform="translate(-471.825 -447.485)" fill="#9ebbdb"/>
        <path id="Path_2224" data-name="Path 2224" d="M1024.434,746.111s-18.037,3.693-13.034,13.31c2.92,5.614,20.187,7.494,20.187,7.494s-9.146,5.019-2.393,7.351c0,0,1.073,8.9,13.319,8.121,0,0,18.422-24-4.082-35.361a29.787,29.787,0,0,0-14-.915" transform="translate(-552.788 -407.905)" fill="#111b33"/>
      </g>
    </g>
    <g id="Group_2287" data-name="Group 2287" transform="translate(201.173 39.993)">
      <g id="Group_2286" data-name="Group 2286" clip-path="url(#clip-path-25)">
        <rect id="Rectangle_2302" data-name="Rectangle 2302" width="21.535" height="28.679" transform="translate(-0.748 0)" fill="url(#linear-gradient-4)"/>
      </g>
    </g>
    <g id="Group_2289" data-name="Group 2289" transform="translate(0 -0.002)">
      <g id="Group_2288" data-name="Group 2288" clip-path="url(#clip-path-2)">
        <path id="Path_2226" data-name="Path 2226" d="M103.094,414.219c.917,6.712-2.771,14.712-8.23,17.861-5.431,3.14-10.568.23-11.509-6.463-.879-6.684,2.775-14.664,8.21-17.794,5.454-3.16,10.621-.269,11.528,6.4m-8.82,13.54c3.548-2.046,5.9-7.154,5.339-11.524-.62-4.3-3.918-6.136-7.467-4.139-3.481,2.055-5.867,7.174-5.277,11.495.591,4.359,3.918,6.184,7.4,4.168" transform="translate(-45.526 -222.389)" fill="#073669"/>
        <path id="Path_2227" data-name="Path 2227" d="M1062.239,53.3l.673-.092a16.223,16.223,0,0,1,.146,2.2c-.018,6.447-3.543,13.337-8.709,16.345a9.309,9.309,0,0,1-4.65,1.356c-4.018.01-7.187-3.24-7.871-8.313v-.006a16.315,16.315,0,0,1-.136-2.126c.018-6.438,3.518-13.344,8.681-16.346a9.4,9.4,0,0,1,4.7-1.372c4.016-.011,7.186,3.221,7.844,8.265l-.673.092-.674.092c-.658-4.615-3.276-7.078-6.5-7.089a8.05,8.05,0,0,0-4.017,1.189c-4.623,2.635-8.021,9.22-8,15.169a14.943,14.943,0,0,0,.125,1.949v-.006c.683,4.652,3.31,7.133,6.526,7.143a7.967,7.967,0,0,0,3.971-1.174c4.629-2.644,8.048-9.213,8.03-15.169a14.81,14.81,0,0,0-.134-2.013Zm-9.16,12.952c2.93-1.665,5.1-5.828,5.081-9.623a9.717,9.717,0,0,0-.076-1.227l.674-.086-.673.1c-.45-2.912-2.033-4.35-3.984-4.363a5.079,5.079,0,0,0-2.478.72l-.333-.592.345.585c-2.864,1.665-5.05,5.819-5.032,9.56a9.28,9.28,0,0,0,.084,1.257c.43,2.949,2.019,4.388,3.941,4.4a4.921,4.921,0,0,0,2.45-.728l.68,1.176a6.274,6.274,0,0,1-3.13.91c-2.72.012-4.862-2.205-5.288-5.575a10.706,10.706,0,0,1-.1-1.441c.018-4.236,2.316-8.706,5.7-10.73l0,0,.008,0a6.433,6.433,0,0,1,3.144-.894c2.738-.012,4.879,2.194,5.328,5.528v.011a11.1,11.1,0,0,1,.087,1.4c-.017,4.278-2.3,8.776-5.761,10.8l-.679-1.177Z" transform="translate(-569.838 -24.586)" fill="url(#linear-gradient-5)"/>
      </g>
    </g>
    <g id="Group_2291" data-name="Group 2291" transform="translate(102.641 117.278)">
      <g id="Group_2290" data-name="Group 2290" clip-path="url(#clip-path-27)">
        <rect id="Rectangle_2304" data-name="Rectangle 2304" width="39.484" height="24.119" transform="translate(-0.048 0)" fill="url(#linear-gradient-6)"/>
      </g>
    </g>
    <g id="Group_2293" data-name="Group 2293" transform="translate(0 -0.002)">
      <g id="Group_2292" data-name="Group 2292" clip-path="url(#clip-path-2)">
        <path id="Path_2229" data-name="Path 2229" d="M660.04,34.158a17.162,17.162,0,0,0-6.464,6.912,65.9,65.9,0,0,1-3.638,6.508,11.111,11.111,0,0,1-3.533,3.158c-2.431,1.372-3.843,1.243-5.361.759-1.494-.509-3-1.591-5.225-1.777a9.152,9.152,0,0,0-5.265,1.462,2.849,2.849,0,0,0-1.211,2.624c.137,1.01.908,1.437,1.7.978,2.455-1.389,3.844-1.236,5.362-.751,1.49.5,3.008,1.583,5.225,1.777a8.931,8.931,0,0,0,5.111-1.381,17.466,17.466,0,0,0,6.618-7,63.951,63.951,0,0,1,3.613-6.492,11.271,11.271,0,0,1,3.553-3.173c2.434-1.373,3.819-1.219,5.337-.735,1.494.5,3,1.583,5.2,1.792a9.006,9.006,0,0,0,5.111-1.381,17.429,17.429,0,0,0,6.613-7,71.564,71.564,0,0,1,3.614-6.5,11.441,11.441,0,0,1,3.557-3.173c2.406-1.349,3.819-1.22,5.313-.719,1.518.484,3.029,1.575,5.225,1.776a8.856,8.856,0,0,0,5.108-1.381,17.316,17.316,0,0,0,6.617-7,70.05,70.05,0,0,1,3.614-6.492,11.319,11.319,0,0,1,3.533-3.157A2.844,2.844,0,0,0,720.6,1.116a1.1,1.1,0,0,0-1.72-.929,17.075,17.075,0,0,0-6.436,6.9A65.067,65.067,0,0,1,708.8,13.6a11.171,11.171,0,0,1-3.529,3.157c-2.431,1.365-3.819,1.219-5.337.735-1.49-.5-3-1.59-5.225-1.776a9.146,9.146,0,0,0-5.24,1.453,17.1,17.1,0,0,0-6.46,6.912,65.068,65.068,0,0,1-3.642,6.508,11.071,11.071,0,0,1-3.529,3.158c-2.431,1.372-3.82,1.228-5.337.735-1.49-.5-3-1.583-5.225-1.777a9.193,9.193,0,0,0-5.237,1.454" transform="translate(-344.261 0.004)" fill="#073669"/>
      </g>
    </g>
  </g>
</svg>
