<svg id="Component_8_1" data-name="Component 8 – 1" xmlns="http://www.w3.org/2000/svg" width="40" height="60" viewBox="0 0 40 60">
  <g id="Group_2626" data-name="Group 2626" transform="translate(-1220 -336)">
    <g id="Ellipse_10" data-name="Ellipse 10" transform="translate(1220 356)" fill="#2e5392" stroke="#d4fffe" stroke-width="2">
      <circle cx="20" cy="20" r="20" stroke="none"/>
      <circle cx="20" cy="20" r="19" fill="none"/>
    </g>
    <g id="Group_2613" data-name="Group 2613" transform="translate(1230.796 368.006)">
      <g id="Group_2620" data-name="Group 2620" transform="translate(0 0)">
        <path id="Path_2649" data-name="Path 2649" d="M19.6,1.776H13.641L13.377.243A.293.293,0,0,0,13.088,0H6.8a.293.293,0,0,0-.289.243L6.247,1.776H.293A.293.293,0,0,0,0,2.068V3.4a.963.963,0,0,0,.8.947V15.7a.293.293,0,0,0,.293.293H9.651v1.872a1.035,1.035,0,1,0,.586,0V15.99H18.8a.293.293,0,0,0,.293-.293V4.348a.963.963,0,0,0,.8-.947V2.068a.293.293,0,0,0-.293-.293m-9.2,17.078a.449.449,0,1,1-.449-.449.45.45,0,0,1,.449.449M7.046.586h5.8l.206,1.19H6.841ZM1.383,4.363H18.505V15.4H1.383ZM19.3,3.4a.377.377,0,0,1-.376.376H.962A.377.377,0,0,1,.586,3.4V2.361H19.3Z" fill="#fff"/>
        <path id="Path_2650" data-name="Path 2650" d="M163.954,104.277a4.067,4.067,0,0,0-2.887,6.932.148.148,0,0,0,.011.013l.013.011a4.068,4.068,0,1,0,2.863-6.956m3.469,3.776h-3.176v-3.176a3.485,3.485,0,0,1,3.176,3.176m-3.761-3.176v3.347l-2.366,2.366a3.477,3.477,0,0,1,2.366-5.713m.293,6.952a3.467,3.467,0,0,1-2.245-.824l2.366-2.366h3.347a3.486,3.486,0,0,1-3.469,3.19" transform="translate(-150.97 -98.462)" fill="#fff"/>
        <path id="Path_2651" data-name="Path 2651" d="M55.154,213.894H51.129a.293.293,0,1,0,0,.585h4.025a.293.293,0,1,0,0-.585" transform="translate(-48.001 -201.967)" fill="#fff"/>
        <path id="Path_2652" data-name="Path 2652" d="M55.154,104.277H51.129a.293.293,0,0,0,0,.586h4.025a.293.293,0,0,0,0-.586" transform="translate(-48.001 -98.462)" fill="#fff"/>
        <path id="Path_2653" data-name="Path 2653" d="M55.154,140.828H51.129a.293.293,0,1,0,0,.585h4.025a.293.293,0,1,0,0-.585" transform="translate(-48.001 -132.975)" fill="#fff"/>
        <path id="Path_2654" data-name="Path 2654" d="M55.154,177.355H51.129a.293.293,0,0,0,0,.586h4.025a.293.293,0,0,0,0-.586" transform="translate(-48.001 -167.465)" fill="#fff"/>
      </g>
    </g>
  </g>
  <g id="Group_2625" data-name="Group 2625" transform="translate(-4561 -699)" opacity="0">
    <g id="Group_2622" data-name="Group 2622">
      <rect id="Rectangle_2595" data-name="Rectangle 2595" width="37" height="17" rx="3" transform="translate(4562 699)" fill="#2e5392"/>
      <path id="Polygon_2" data-name="Polygon 2" d="M3.566.76a.5.5,0,0,1,.868,0L7.573,6.252A.5.5,0,0,1,7.138,7H.862a.5.5,0,0,1-.434-.748Z" transform="translate(4585 721) rotate(180)" fill="#2e5392"/>
      <text id="Notes" transform="translate(4566 711)" fill="#fff" font-size="10" font-family="Poppins-SemiBold, Poppins" font-weight="600"><tspan x="0" y="0">Notes</tspan></text>
    </g>
  </g>
</svg>
